<svg version="1" xmlns="http://www.w3.org/2000/svg" width="1013.333" height="1013.333" viewBox="0 0 760.000000 760.000000"><path d="M377.1 2.9c-1.2 1.6-2.1 3.4-2.1 4 0 .6-.4 1.1-1 1.1-.5 0-.9.3-.8.7.1.9-.3 2.2-3.3 9.5-1 2.5-2 5.5-2.2 6.5-.2 1-.9 3-1.5 4.6-1 2.4-7.7 25.3-9.7 33.2-.5 1.6-.9 3.4-1.1 4-2.2 8-12.5 48.9-12.9 51.4-.3 1.9-.8 3.7-1 4.1-.2.3-.6 1.7-.8 3.1-.3 1.3-1.2 5.1-2 8.4-.9 3.3-1.8 7.1-2.1 8.5-.3 1.4-.7 3.4-1 4.5-2.8 12.3-7.6 33.5-8 35.5-.3 1.4-.7 3.6-1 5-.3 1.4-.8 3.6-1.1 5-.3 1.4-.7 3.5-1 4.8-1 5.5-1.4 5.8-9.3 7.6-10 2.4-25.2 7.3-37.2 12.1-9.5 3.8-29.1 13.2-30 14.5-.3.4-1.3 1-2.4 1.3-1.4.6-4.9-2.4-16.5-13.9-14.2-14.2-49.9-48.9-55.2-53.6-7.6-6.7-17.5-15.5-19.3-17.3-1.2-1.1-5.3-4.6-9.1-7.8-3.9-3.3-7.9-6.6-9-7.6-4.9-4.1-17.6-13.1-18.5-13.1-.5 0-1-.5-1-1.1 0-.5-.4-.8-.9-.4-.5.3-1.3 0-1.6-.5-1.9-3-10.2-4.5-11.5-2-1.1 2.1-.4 13.5 1.1 16.2.6 1.1.8 2.2.5 2.5-.3.3-.1 1.3.4 2.3.5.9 1.1 2.9 1.4 4.3.2 1.5 1.4 5.5 2.6 8.9 4.7 13.7 8.2 23.4 9 25.3.5 1.1 3.6 9.2 7.1 18 3.4 8.8 7 17.8 8 20 1 2.2 3 6.9 4.4 10.5 1.5 3.6 3.8 8.9 5.1 11.8 1.3 2.9 2.4 5.4 2.4 5.7 0 .5 20.5 46.7 22.6 50.9.8 1.6 1.4 3 1.4 3.1 0 .1-2.7 3-6 6.4-6.9 7.1-15.6 17.9-19 23.6-1.3 2.2-2.7 4.2-3 4.5-.3.3-2.8 5-5.5 10.5-6.6 13.5-5.8 12.8-11.8 10.3-11.9-4.7-56.1-20.3-60.7-21.4-.8-.1-6.2-1.7-12-3.4-9.5-2.8-15.9-4.4-23-5.6-6.9-1.3-16.7-1.3-19-.1-7.9 4.1 3 19.2 35.6 49.4 5.4 5 11.3 10.2 12.9 11.4 1.7 1.3 3.2 2.6 3.5 3 .6.8 21.4 18.4 26.4 22.4 2.1 1.6 4.6 3.7 5.6 4.5 1 .8 3.7 3 6 4.9 3.6 3 4 3.7 3.5 6.5-.3 1.7-.7 4.7-1 6.6-.2 1.9-.6 5.3-.9 7.5-1.6 11.6-1.9 16.8-1.8 36.5.2 21.3.6 31.7 1.6 39.5.3 2.2.8 6 1 8.5.4 3.7 3.2 18.5 5.1 26.5.3 1.1.7 2.9.9 4 1.1 5.3 10.1 31.1 11 31.7.6.4.8.8.4.8-1.2 0 10.2 24.1 15.8 33.5 1.3 2.2 2.7 4.7 3.1 5.5.6 1.3 2.1 3.6 6.3 10 2.6 3.9 12.7 17.8 14.5 19.9 12.2 14.6 18.9 21.7 30.1 32.1 7.6 7 17.1 15 17.8 15 .4 0 1.6.9 2.8 1.9 3 2.8 19.7 14.1 20.8 14.1.6 0 1 .4 1 .9s.8 1.1 1.7 1.4c1 .3 4.1 1.9 6.8 3.6 7.2 4.2 31.4 16.1 32.9 16.1.3 0 1.7.5 3.3 1.2 1.5.6 3 1.2 3.3 1.3.3.1 1.2.4 2 .8 6.5 2.5 23.8 7.6 28.5 8.4 1.7.3 3.8.9 4.8 1.5 1 .5 2.1.7 2.4.4.3-.2 1.6 0 3 .5s4 1.1 5.7 1.4c1.7.2 4.5.6 6.1.9 16.3 2.6 22.3 3 44 3 19 0 32.5-.7 38-1.8 1.1-.2 4-.7 6.5-1 2.5-.3 5.6-.8 7-1.1 1.4-.3 4.8-1 7.5-1.6 2.8-.6 5.9-1.2 7-1.5 1.1-.2 2.9-.6 4-.8 2.8-.6 11.7-3.3 20.5-6.2 4.1-1.4 8-2.7 8.5-2.8 1.3-.4 3.4-1.2 13.5-5.4 13.3-5.6 30.9-14.9 43.1-23 8.4-5.5 14.3-9.6 15.5-10.7.6-.5 2.6-2.1 4.4-3.5 3.3-2.5 4-3.1 11.9-9.8 9-7.6 22.5-21.6 32.6-33.7 2.8-3.3 5.3-6.2 5.8-6.3.4-.2.7-.9.7-1.7 0-.7.6-1.8 1.4-2.4 5.9-4.9 28-43.8 34.4-60.6.6-1.7 1.7-4.4 2.3-6 .7-1.7 1.3-3.2 1.4-3.5 0-.3 1.2-3.7 2.5-7.5 1.3-3.9 2.5-7.5 2.6-8 .1-.6 1.4-5.7 2.9-11.5 2.6-10 3.9-16.7 5.1-25.5.3-2.2.8-5.1 1-6.5 2.7-15.4 2.1-63.5-1.1-87-.3-2.5-.8-5.7-1-7.2-.2-1.6.2-2.8 1-3 .6-.2 3-1.8 5.1-3.5 3.4-2.9 7.8-6.4 22.8-18.6 5-4.1 12.7-10.6 14.6-12.4.8-.7 2.6-2.3 4-3.4 9.1-7.3 30.9-28.5 38.5-37.3 17.5-20.4 13.6-27.1-13-22.2-4.4.8-9.1 1.8-10.5 2.1-1.4.4-3.6.9-5 1.2-1.4.2-3.4.8-4.5 1.3s-5.4 1.8-9.5 3c-7.3 2-17.5 5.4-21.5 7-1.1.5-6.2 2.3-11.4 4-5.2 1.8-10.6 3.7-12 4.2-1.4.6-3 1.2-3.6 1.4-.5.1-5.4 2-10.9 4.3-11.1 4.5-10.7 4.5-14.4-3.4-5.2-11.1-24.7-41.9-29.8-46.9-1.4-1.5-1.4-2.1.2-6.9.9-2.8 2-5.7 2.4-6.2.4-.6 3.1-6.6 6-13.5s5.7-13.6 6.3-15c.6-1.4 1.1-2.7 1.2-3 .1-.3.6-1.6 1.2-3s2.5-6.1 4.3-10.5c1.8-4.4 3.8-9.4 4.5-11 .7-1.7 2.4-5.9 3.8-9.5 1.4-3.6 3.1-7.9 3.8-9.5.7-1.7 1.3-3.5 1.5-4 .1-.6.8-2.4 1.5-4 .6-1.7 1.3-3.7 1.5-4.5.2-.8.7-2.3 1.2-3.5 2.3-4.9 9-23.2 9.6-26 .1-.6.5-1.5.8-2.1.4-.6.9-2.1 1.2-3.5.3-1.3 1.9-6.9 3.6-12.4 1.6-5.5 3.2-11.1 3.4-12.5.2-1.4.5-2.5.6-2.5.5 0 1.9-8.7 2.1-13.7.3-5.3-1.2-7.8-4.6-7.8-2.1 0-15.2 6.4-16.5 8-.3.3-2.1 1.7-4 3s-4.9 3.5-6.6 4.9c-1.7 1.4-4 3.3-5 4.1-4.2 3.3-14 11.7-17 14.5-1.7 1.6-7.1 6.6-11.9 11-14.1 12.8-56.9 54.7-70.9 69.4-2.7 2.9-5.1 5-5.5 4.9-.3-.2-6.7-3.3-14.1-7-15.8-7.7-20.9-10-27-12.1-2.5-.8-5.8-2.1-7.5-2.8-1.6-.7-3.2-1.3-3.5-1.4-.3-.1-3.9-1.2-8-2.5s-7.7-2.5-8-2.6c-3.9-1-7-2.9-7.1-4.2 0-1-.2-2.4-.4-3.2-.2-.8-.6-2.6-.9-4-.3-1.4-2.4-10.6-4.6-20.5-2.3-9.9-4.4-19.1-4.6-20.5-.3-1.4-1-4.3-1.5-6.5-.6-2.2-1.2-4.9-1.4-6-.3-1.1-.6-2.7-.8-3.5-.2-.8-.7-3.3-1.2-5.5-.4-2.2-1.1-4.7-1.5-5.5-.5-.8-1-2.9-1.3-4.6-.5-3.5-11.5-48-12.4-50.4-.3-.8-.7-2.2-.9-3-.6-3.3-8-28.8-10.9-37.5C388.1 10.2 383.1 0 380 0c-.5 0-1.8 1.3-2.9 2.9zM212 391.8c8.9 3.2 32.3 14.8 32.8 16.3.2.5 1 .9 1.8.9s1.4.4 1.4 1c0 .5.5 1 1 1 1.6 0 30 19.3 34.6 23.5 2.7 2.4 5.5 4.5 5.9 4.5.9 0 19.2 15 24 19.6 1.1 1.2 2.6 2.3 3.2 2.5.9.4 8.6 6.8 15.3 12.9 1.5 1.4 5.7 5.1 9.4 8.3l6.6 5.9-1.8 3c-1.6 3-13.4 15.4-18.1 19.1-6.2 5-24.7 15.1-29.5 16.2-.6.1-1.8.5-2.6.8-7.7 2.8-17.4 4.1-32 4-10.2-.1-14.4-.6-22.5-2.8-18.4-4.8-37.5-16.4-52.8-31.9-7.1-7.2-14.7-16.7-14.7-18.5 0-.5-.4-1.1-.8-1.3-1.2-.5-5.8-10.6-8.3-18.3-3-9.2-3.3-28-.5-37 .2-.6.6-2.4 1.1-4 .4-1.7 1.3-3.9 1.8-5 .6-1.1 1.2-2.5 1.3-3.2.7-4.2 11.7-19.8 13.6-19.2.2 0 1-.2 1.8-.5.8-.2 2.2-.6 3-.9 4.4-1.3 17 .3 25 3.1zm356.5-1c4 2.3 8.3 7.9 11.9 15.7 1.9 4.2 6.2 16.3 6.4 18 .1.5.4 3.2.7 6 1.2 9.6.8 16.3-1.6 26.1-1.2 5.4-8 20.2-11.3 24.8-5.9 8.3-16.3 19.1-25.1 25.9-3.3 2.6-6.4 5.1-7 5.5-5.3 4.1-23 13.2-25.8 13.2-.7 0-1.7.3-2.1.7-.3.4-1.2.8-1.9.9-.7.1-3.1.7-5.4 1.3-7 1.9-12.4 2.5-23.3 2.5-10.8 0-14.4-.4-24.5-2.8-9.8-2.3-21.9-7.8-31-13.9-5.4-3.7-7-5-13-10.4-3.9-3.4-12.5-14-12.5-15.2 0-1.4 3.3-4.7 13-13.1 3.5-3 7.6-6.6 9.1-8 1.5-1.4 4.4-3.9 6.5-5.5 3.6-2.8 9.5-7.7 12-10 .6-.6 2.6-2.2 4.5-3.7 1.9-1.4 5-3.9 7-5.5 2-1.5 5.1-3.9 6.9-5.3 6.6-5 10.5-8 11.7-8.9 2.5-2.2 29.9-20.4 31.3-20.9.8-.3 2.2-1.1 3-1.7 4.7-3.9 38-18.7 38-16.9 0 .3.8.1 1.7-.4.9-.6 5.1-.9 9.2-.8 5.9.1 8.5.7 11.6 2.4z"/></svg>
