<?xml version="1.0" standalone="no"?>
<!DOCTYPE svg PUBLIC "-//W3C//DTD SVG 20010904//EN"
 "http://www.w3.org/TR/2001/REC-SVG-20010904/DTD/svg10.dtd">
<svg version="1.0" xmlns="http://www.w3.org/2000/svg"
 width="700.000000pt" height="700.000000pt" viewBox="0 0 700.000000 700.000000"
 preserveAspectRatio="xMidYMid meet">
<metadata>
Created by potrace 1.11, written by Peter Selinger 2001-2013
</metadata>
<g transform="translate(0.000000,700.000000) scale(0.100000,-0.100000)"
fill="#000000" stroke="none">
<path d="M3516 6941 c-7 -11 -27 -78 -51 -171 -2 -8 -26 -94 -53 -190 -28 -96
-71 -249 -97 -340 -25 -91 -54 -194 -65 -230 -16 -55 -27 -93 -46 -165 -2 -5
-17 -59 -34 -120 -18 -60 -63 -220 -101 -355 -62 -215 -77 -257 -99 -261 -158
-29 -434 -131 -605 -224 -92 -51 -89 -50 -107 -32 -7 6 -53 46 -103 87 -49 41
-99 82 -110 91 -11 10 -40 35 -65 56 -58 48 -146 123 -174 147 -11 10 -99 84
-195 165 -580 488 -561 472 -584 494 -10 10 -21 17 -23 14 -4 -4 30 -104 126
-362 28 -77 55 -151 60 -165 4 -14 40 -113 80 -220 40 -107 76 -206 80 -220 5
-14 19 -54 33 -90 13 -36 66 -179 116 -318 103 -281 101 -251 26 -327 -103
-102 -242 -315 -279 -427 -3 -10 -12 -18 -21 -18 -8 0 -258 61 -555 135 -297
74 -543 135 -547 135 -4 0 189 -197 431 -439 l438 -439 -10 -63 c-23 -131 -27
-200 -27 -434 0 -287 12 -423 55 -615 6 -25 12 -54 15 -65 2 -11 17 -66 34
-121 94 -314 264 -626 484 -889 167 -200 449 -436 672 -563 72 -41 305 -152
318 -152 7 0 17 -4 22 -9 32 -30 435 -137 590 -156 196 -24 536 -24 665 -1 14
3 47 7 74 11 27 3 52 8 56 10 3 2 25 6 50 10 225 33 581 171 824 318 139 83
171 107 370 267 58 47 236 231 302 313 290 360 467 767 539 1242 24 159 24
607 0 735 -2 8 -6 48 -10 89 l-7 74 438 438 c242 242 435 439 431 439 -4 0
-250 -61 -547 -135 -297 -74 -546 -135 -554 -135 -7 0 -32 38 -55 84 -50 100
-130 230 -212 343 -32 45 -59 86 -59 93 0 6 25 84 56 173 30 89 68 200 84 247
15 47 56 166 90 265 34 99 95 277 135 395 41 118 99 289 130 379 31 90 54 165
52 167 -2 2 -15 -5 -28 -17 -13 -12 -41 -35 -63 -52 -21 -18 -43 -37 -50 -42
-9 -9 -315 -268 -596 -504 -41 -35 -140 -119 -220 -186 -167 -141 -278 -234
-302 -253 -15 -12 -28 -8 -100 31 -129 69 -238 115 -423 178 -116 40 -172 64
-177 76 -7 16 -144 494 -153 533 -4 16 -74 265 -126 443 -17 59 -32 113 -33
120 -1 6 -10 39 -20 72 -10 33 -20 67 -22 75 -4 18 -107 384 -128 455 -9 28
-19 66 -24 85 -6 24 -11 30 -16 21z m-1291 -3781 c215 -139 440 -285 500 -325
61 -39 189 -123 285 -185 96 -62 181 -118 189 -125 12 -11 10 -18 -8 -42 -82
-105 -242 -233 -346 -276 -102 -43 -91 -39 -190 -62 -100 -23 -271 -24 -372
-2 -168 37 -327 123 -450 245 -224 222 -306 519 -238 862 8 39 54 154 88 217
l17 33 68 -44 c37 -23 243 -157 457 -296z m3070 293 c34 -61 81 -197 90 -259
4 -27 9 -58 11 -69 7 -35 6 -158 -1 -210 -18 -137 -72 -282 -150 -400 -154
-231 -446 -388 -725 -389 -211 0 -369 48 -539 164 -92 63 -232 213 -215 230 9
8 133 91 371 245 59 38 232 150 383 249 151 98 313 203 360 233 47 30 153 99
235 153 83 54 151 99 152 99 1 1 13 -20 28 -46z m-333 -1804 c-11 -233 -146
-492 -360 -694 -202 -190 -531 -347 -802 -381 -25 -4 -64 -10 -87 -14 -51 -9
-344 -6 -423 5 -256 33 -519 131 -719 266 -104 70 -257 215 -323 305 -87 120
-161 288 -187 424 -12 60 -20 147 -16 152 2 2 660 3 1462 2 l1458 -1 -3 -64z"/>
</g>
</svg>
