<?xml version="1.0" encoding="UTF-8"?>
<svg width="682px" height="1115px" viewBox="0 0 682 1115" version="1.1" xmlns="http://www.w3.org/2000/svg" xmlns:xlink="http://www.w3.org/1999/xlink">
    <!-- Generator: Sketch 40.3 (33839) - http://www.bohemiancoding.com/sketch -->
    <title>me</title>
    <desc>Created with Sketch.</desc>
    <defs></defs>
    <g id="Page-1" stroke="none" stroke-width="1" fill="none" fill-rule="evenodd">
        <g id="me">
            <g id="body" transform="translate(0.000000, 346.000000)">
                <path d="M277.101562,68.1484375 L324.09375,101.65625 L399.25,82.3968931 L413.164062,57.625 L514.228512,81.2451659 L681.367188,223.925781 L681.367188,255.273437 L543.765625,406.671875 L503.492187,419.767578 L481.101563,413.621094 L473.394531,406.671875 L481.101563,360.542969 L488.300781,350.503906 L522.875,355.023437 L611.574219,243.882812 L503.492187,185.765625 L456.71875,483 L234.230469,483 L186.539063,185.765625 L70.4042969,248.042969 L170.390625,360.542969 L203.605469,355.023437 L212.029297,365.208984 L218.544922,406.671875 L212.029297,413.621094 L191.925781,419.767578 L148.783203,400.669922 L4.13671875,260.521484 L0.439453125,228.056641 L176.135398,82.3968931 L277.101562,68.1484375 Z" id="Combined-Shape" fill="#D5DAEA"></path>
                <polygon id="Path-11" fill="#BCC6DC" points="297.203125 6.46875 297.203125 30.4570312 276.921875 40.5039062 266.308594 70.46875 353.699219 121.007812 430.195312 81 418.066406 40.5039062 396.25 30.4570312 396.25 0.53515625"></polygon>
            </g>
            <polygon id="pants" fill="#283758" points="219.765625 825.212891 184.265625 1114.67187 319.449219 1114.10547 350.826172 912.316406 377.679688 1114.10547 511.257812 1114.10547 477.291016 825.212891"></polygon>
            <polygon id="shirt" fill="#000000" points="401.508789 377.836914 405.041992 392.158203 352.476562 450.261719 289.564453 392.158203 291.257812 378.920898 173.558594 426.589844 72.5273438 508.074219 105.050781 587.480469 187.082031 557.449219 209.572266 680.751953 213.738281 829.742187 482.861328 829.742187 482.861328 684.53125 503.394531 547.460938 577.816406 583.457031 628.609375 516.746094 511.660156 422.210938"></polygon>
            <g id="head" transform="translate(221.000000, 83.000000)">
                <polygon id="Path-3" fill="#303640" points="83.0996094 19.7910156 60.3105469 18.296875 20.8242188 61.2421875 0.150390625 133.103516 10.2226562 159.185547 36.2597656 157.175781 81.6835938 45.3125"></polygon>
                <ellipse id="Oval" fill="#D5DAEA" cx="123.1875" cy="149.49763" rx="99.1875" ry="126.49763"></ellipse>
                <polygon id="Path-9" fill="#212247" points="89.6162109 208.283203 123.964844 209.644531 159.807617 207.016602 164.609375 214.683594 150.449219 230.320312 123.964844 233.608887 92.6875 229.832031 87.25062 215.210497"></polygon>
                <polygon id="Combined-Shape" fill="#FFFFFF" points="99.1679688 227.219727 143.763184 227.219727 150.449219 230.320312 123.398438 234.75 92.6875 229.832031"></polygon>
                <polygon id="Combined-Shape" fill="#FFFFFF" points="149.092773 217.510742 98.1044922 216.959473 87.1723487 215 88.5795898 205.93457 123.964844 207.086914 159.976074 205.285645 164.609375 214.683594 164.322847 215"></polygon>
                <g id="Group-2" transform="translate(16.000000, 143.000000)" fill="#303640">
                    <path d="M199.607364,1.57421875 L192.852525,34.5683594 L169.739944,67.1992187 L141.79133,105.027344 L130.993164,117.167969 C130.993164,117.167969 114.435725,105.080507 106.527487,105.027344 C97.7782807,104.968527 81.0208307,116.832031 81.0208307,116.832031 L69.8183313,103.4375 L29.6315595,56.4511719 L11.7256491,31.4433594 L6.32567914,0.12109375 L0.305022936,0.373046875 L0,35.1464844 L10.8123537,79.4765625 L33.5276955,114.294922 L58.8853871,138.960938 L76.8781936,147.246094 L141.401185,146.455078 L157.918532,136.398438 L183.497897,110.921875 L201.212281,77.3066406 L208.375,32.8007812 L207.834116,1.0078125 L199.607364,1.57421875 Z" id="Path-4"></path>
                    <polygon id="Path-5" points="97.8847656 44.3320312 101.798828 51.7714844 98.6425781 57.6425781 60.2597656 64.1308594 59.4882812 97.0546875 51.7167969 99.0859375 50.1679688 50.7109375"></polygon>
                    <polygon id="Path-5" transform="translate(139.815430, 71.376953) scale(-1, 1) translate(-139.815430, -71.376953) " points="161.716797 44 165.630859 51.4394531 162.474609 57.3105469 124.091797 63.7988281 123.320312 96.7226562 115.548828 98.7539062 114 50.3789062"></polygon>
                </g>
                <path d="M71.7304688,34.203125 L80.0038388,5.96875 L98.3121468,0.255859375 C98.3121468,0.255859375 136.617614,2.12304688 140.662494,2.12304688 C144.707374,2.12304688 201.886523,40.8320312 201.886523,40.8320312 L233.932879,114.246094 L235,153.507812 L225.081409,160.574219 L206.75674,136.46875 L196.967222,114.599609 L140.042582,47.5253906 L99.4083547,36.0507812 L72.5103579,40.4648438 L71.7304688,34.203125 Z" id="Path-2" fill="#303640"></path>
                <g id="Group" transform="translate(50.000000, 109.000000)">
                    <polygon id="Path-6" fill="#303640" points="50.8339844 3.83203125 15.5507813 0.826171875 1.57421875 11.1367187 0.8671875 18.78125 29.8847656 9.45703125 51.1621094 8.03710938"></polygon>
                    <polygon id="Path-7" fill="#FFFFFF" points="53.2045652 18 3 25.9037593 16.0041095 35.733525 46.7583884 39.5498709 59.2441406 29.2183925"></polygon>
                    <path d="M45.1697749,39.3527374 C48.7301646,36.4181608 51,31.9741546 51,27 C51,23.9656111 50.1553082,21.1285106 48.6882367,18.7110105 L19.4257473,23.3178361 C19.1473128,24.5000232 19,25.7328082 19,27 C19,30.5537322 20.1585778,33.8368641 22.1186221,36.4922843 L45.1697749,39.3527374 Z" id="Combined-Shape" fill="#303640"></path>
                </g>
                <g id="Group" transform="translate(166.000000, 129.000000) scale(-1, 1) translate(-166.000000, -129.000000) translate(136.000000, 109.000000)">
                    <polygon id="Path-6" fill="#303640" points="50.8339844 3.83203125 15.5507813 0.826171875 1.57421875 11.1367187 0.8671875 18.78125 29.8847656 9.45703125 51.1621094 8.03710938"></polygon>
                    <polygon id="Path-7" fill="#FFFFFF" points="53.2045652 18 3 25.9037593 16.0041095 35.733525 46.7583884 39.5498709 59.2441406 29.2183925"></polygon>
                    <path d="M45.1697749,39.3527374 C48.7301646,36.4181608 51,31.9741546 51,27 C51,23.9656111 50.1553082,21.1285106 48.6882367,18.7110105 L19.4257473,23.3178361 C19.1473128,24.5000232 19,25.7328082 19,27 C19,30.5537322 20.1585778,33.8368641 22.1186221,36.4922843 L45.1697749,39.3527374 Z" id="Combined-Shape" fill="#303640"></path>
                </g>
                <polygon id="Path-8" fill="#BCC6DC" points="114.933594 120.140625 111.933594 158.753906 102.417969 172.316406 102.695312 181.964844 121.917969 186.214844 142 183.335938 142.179688 172.972656 133.125 157.347656 129.570312 117.65625"></polygon>
            </g>
            <g id="crown" opacity="0.203747736" transform="translate(156.000000, 0.000000)" fill="#FFFFFF">
                <polygon id="Path-12" opacity="0.166836504" points="182.359375 0.7734375 206.388672 66.2949219 157.009933 64.203125"></polygon>
                <polygon id="Path-12-Copy" opacity="0.166836504" transform="translate(273.799447, 65.832948) rotate(31.000000) translate(-273.799447, -65.832948) " points="268.921417 30.2981711 296.906793 101.367724 250.6921 99.3188041"></polygon>
                <polygon id="Path-12-Copy-2" opacity="0.166836504" transform="translate(323.452711, 129.638435) rotate(51.000000) translate(-323.452711, -129.638435) " points="320.267679 90.6499529 344.009607 168.626917 302.895815 155.97455"></polygon>
                <polygon id="Path-12-Copy" opacity="0.166836504" transform="translate(87.198136, 70.912049) scale(-1, 1) rotate(31.000000) translate(-87.198136, -70.912049) " points="82.7903292 31.5025513 109.835259 110.321547 64.5610125 100.523184"></polygon>
                <polygon id="Path-12-Copy-2" opacity="0.166836504" transform="translate(43.452711, 135.638435) scale(-1, 1) rotate(51.000000) translate(-43.452711, -135.638435) " points="40.2676789 96.6499529 64.0096074 174.626917 22.8958153 161.97455"></polygon>
            </g>
        </g>
    </g>
</svg>