<svg width="682" height="1115" viewBox="0 0 682 1115" xmlns="http://www.w3.org/2000/svg"><title>me</title><g fill="none" fill-rule="evenodd"><path d="M277.102 414.148l46.992 33.508 75.156-19.26 13.914-24.771 101.065 23.62 167.138 142.68v31.348L543.766 752.672l-40.274 13.096-22.39-6.147-7.707-6.95 7.707-46.128 7.199-10.04 34.574 4.52 88.7-111.14-108.083-58.117L456.72 829H234.23l-47.69-297.234-116.136 62.277 99.987 112.5 33.214-5.52 8.424 10.186 6.516 41.463-6.516 6.95-20.103 6.146-43.143-19.098L4.137 606.52.439 574.057l175.696-145.66 100.967-14.249z" fill="#D5DAEA"/><path fill="#BCC6DC" d="M297.203 352.469v23.988l-20.281 10.047-10.613 29.965 87.39 50.539L430.195 427l-12.129-40.496-21.816-10.047v-29.922z"/><path fill="#283758" d="M219.766 825.213l-35.5 289.459 135.183-.567 31.377-201.789 26.854 201.79h133.578L477.29 825.212z"/><path fill="#000" d="M401.509 377.837l3.533 14.321-52.565 58.104-62.913-58.104 1.694-13.237-117.7 47.669-101.03 81.484 32.523 79.406 82.031-30.03 22.49 123.302 4.166 148.99h269.123v-145.21l20.534-137.071 74.421 35.996 50.793-66.71L511.66 422.21z"/><g transform="translate(221 83)"><path fill="#303640" d="M83.1 19.791l-22.79-1.494-39.486 42.945L.15 133.104l10.073 26.082 26.037-2.01L81.684 45.313z"/><ellipse fill="#D5DAEA" cx="123.188" cy="149.498" rx="99.188" ry="126.498"/><path fill="#212247" d="M89.616 208.283l34.349 1.362 35.843-2.628 4.801 7.667-14.16 15.636-26.484 3.289-31.278-3.777-5.436-14.622z"/><path fill="#FFF" d="M99.168 227.22h44.595l6.686 3.1-27.05 4.43-30.712-4.918zM149.093 217.51l-50.989-.55L87.172 215l1.408-9.065 35.385 1.152 36.011-1.801 4.633 9.398-.286.316z"/><g fill="#303640"><path d="M215.607 144.574l-6.754 32.994L185.74 210.2l-27.949 37.828-10.798 12.141s-16.557-12.087-24.466-12.14c-8.749-.06-25.506 11.804-25.506 11.804l-11.203-13.395-40.186-46.986-17.906-25.008-5.4-31.322-6.021.252L16 178.146l10.812 44.33 22.716 34.819 25.357 24.666 17.993 8.285 64.523-.79 16.518-10.058 25.579-25.476 17.714-33.615 7.163-44.506-.54-31.793-8.228.566z"/><path d="M113.885 187.332l3.914 7.44-3.156 5.87-38.383 6.489-.772 32.924-7.771 2.03-1.549-48.374zM133.914 187L130 194.44l3.156 5.87 38.383 6.489.772 32.924 7.771 2.03 1.549-48.374z"/></g><path d="M71.73 34.203L80.004 5.97 98.312.256s38.306 1.867 42.35 1.867c4.045 0 61.225 38.709 61.225 38.709l32.046 73.414L235 153.508l-9.919 7.066-18.324-24.105-9.79-21.87-56.924-67.074-40.635-11.474-26.898 4.414-.78-6.262zM100.834 112.832l-35.283-3.006-13.977 10.31-.707 7.645 29.018-9.324 21.277-1.42z" fill="#303640"/><path fill="#FFF" d="M103.205 127L53 134.904l13.004 9.83 30.754 3.816 12.486-10.332z"/><path d="M95.17 148.353A15.968 15.968 0 0 0 101 136c0-3.034-.845-5.871-2.312-8.289l-29.262 4.607A16.046 16.046 0 0 0 69 136c0 3.554 1.159 6.837 3.119 9.492l23.05 2.86z" fill="#303640"/><g><path fill="#303640" d="M145.166 112.832l35.283-3.006 13.977 10.31.707 7.645-29.018-9.324-21.277-1.42z"/><path fill="#FFF" d="M142.795 127L193 134.904l-13.004 9.83-30.754 3.816-12.486-10.332z"/><path d="M150.83 148.353A15.968 15.968 0 0 1 145 136c0-3.034.845-5.871 2.312-8.289l29.262 4.607c.279 1.182.426 2.415.426 3.682 0 3.554-1.159 6.837-3.119 9.492l-23.05 2.86z" fill="#303640"/></g><path fill="#BCC6DC" d="M114.934 120.14l-3 38.614-9.516 13.562.277 9.649 19.223 4.25 20.082-2.88.18-10.362-9.055-15.625-3.555-39.692z"/></g><g opacity=".204" fill="#FFF"><path opacity=".167" d="M338.36.773l24.029 65.522-49.38-2.092zM443.92 32.861l-12.615 75.332-38.559-25.558zM507.748 102.627L462.09 170.15l-16.041-39.913zM226.679 34.861l17.413 81.49 33.76-31.716zM171.157 108.627l45.659 67.523 16.04-39.913z"/></g></g></svg>