<?xml version="1.0" encoding="UTF-8"?>
<svg width="16px" height="16px" viewBox="0 0 16 16" version="1.1" xmlns="http://www.w3.org/2000/svg" xmlns:xlink="http://www.w3.org/1999/xlink">
    <!-- Generator: Sketch 41.2 (35397) - http://www.bohemiancoding.com/sketch -->
    <title>branding</title>
    <desc>Created with Sketch.</desc>
    <defs></defs>
    <g id="Page-1" stroke="none" stroke-width="1" fill="none" fill-rule="evenodd">
        <path d="M0,0 L16,0 L16,16 L0,16 L0,0 Z M1,1 L15,1 L15,15 L1,15 L1,1 Z M5,5 L11,5 L11,9 L12,9 L12,4 L13,4 L13,9 L13,10 L10,10 L10,8 L6,8 L6,10 L5,10 L5,5 Z M4,11 L12,11 L12,12 L4,12 L4,11 Z M3,4 L4,4 L4,11 L3,11 L3,4 Z M4,3 L12,3 L12,4 L4,4 L4,3 Z M6,6 L10,6 L10,7 L6,7 L6,6 Z" id="branding" fill="#000000"></path>
    </g>
</svg>