<?xml version="1.0" encoding="UTF-8"?>
<svg width="20px" height="18px" viewBox="0 0 20 18" version="1.1" xmlns="http://www.w3.org/2000/svg" xmlns:xlink="http://www.w3.org/1999/xlink">
    <!-- Generator: Sketch 41.2 (35397) - http://www.bohemiancoding.com/sketch -->
    <title>email</title>
    <desc>Created with Sketch.</desc>
    <defs></defs>
    <g id="Page-1" stroke="none" stroke-width="1" fill="none" fill-rule="evenodd">
        <g id="iPhone-7" transform="translate(-151.000000, -324.000000)" fill="#000000">
            <path d="M157,334 L159,334 L159,336 L163,336 L163,334 L165,334 L165,336 L167,336 L167,338 L169,338 L169,340 L171,340 L171,342 L151,342 L151,340 L153,340 L153,338 L155,338 L155,336 L157,336 L157,334 Z M151,328 L153,328 L153,330 L155,330 L155,332 L157,332 L157,334 L155,334 L155,336 L153,336 L153,338 L151,338 L151,328 Z M171,328 L169,328 L169,330 L167,330 L167,332 L165,332 L165,334 L167,334 L167,336 L169,336 L169,338 L171,338 L171,328 Z M151,324 L171,324 L171,326 L169,326 L169,328 L167,328 L167,330 L165,330 L165,332 L163,332 L163,334 L159,334 L159,332 L157,332 L157,330 L155,330 L155,328 L153,328 L153,326 L151,326 L151,324 Z" id="email"></path>
        </g>
    </g>
</svg>