<?xml version="1.0" encoding="UTF-8"?>
<svg width="20px" height="18px" viewBox="0 0 20 18" version="1.1" xmlns="http://www.w3.org/2000/svg" xmlns:xlink="http://www.w3.org/1999/xlink">
    <!-- Generator: Sketch 41.2 (35397) - http://www.bohemiancoding.com/sketch -->
    <title>github</title>
    <desc>Created with Sketch.</desc>
    <defs></defs>
    <g id="Page-1" stroke="none" stroke-width="1" fill="none" fill-rule="evenodd">
        <g id="iPhone-7" transform="translate(-175.000000, -324.000000)" fill="#000000">
            <path d="M181,332 L181,336 L183,336 L183,332 L181,332 Z M181,324 L181,326 L183,326 L183,328 L187,328 L187,326 L189,326 L189,324 L193,324 L193,330 L195,330 L195,340 L193,340 L193,342 L177,342 L177,340 L175,340 L175,330 L177,330 L177,324 L181,324 Z M179,332 L177,332 L177,338 L179,338 L179,340 L191,340 L191,338 L193,338 L193,332 L191,332 L191,330 L179,330 L179,332 Z M187,332 L187,336 L189,336 L189,332 L187,332 Z" id="github"></path>
        </g>
    </g>
</svg>