<svg width="126" height="126" viewBox="0 0 126 126" xmlns="http://www.w3.org/2000/svg" xmlns:xlink="http://www.w3.org/1999/xlink"><title>Untitled</title><defs><path id="a" d="M0 125.94h125.05V.95H0z"/></defs><g fill="none" fill-rule="evenodd"><path fill="#FFF" d="M51.477 58.232l5.387 16.082 16.708-5.596-5.386-16.082-16.709 5.596"/><mask id="b" fill="#fff"><use xlink:href="#a"/></mask><path fill="#FFF" mask="url(#b)" d="M51.477 58.232l5.387 16.082 16.708-5.596-5.386-16.082-16.709 5.596"/><path d="M98.083 74.181l-8.102 2.713 2.808 8.383a6.481 6.481 0 0 1-6.313 8.54 6.481 6.481 0 0 1-5.979-4.422l-2.808-8.384-16.708 5.595 2.808 8.384a6.482 6.482 0 0 1-12.292 4.117l-2.808-8.384-8.103 2.714a6.48 6.48 0 0 1-2.226.335 6.482 6.482 0 0 1-1.891-12.628l8.103-2.713-5.387-16.082-8.102 2.713a6.477 6.477 0 0 1-8.204-4.088 6.482 6.482 0 0 1 4.088-8.205l8.101-2.713-2.808-8.384a6.482 6.482 0 0 1 12.292-4.117l2.808 8.384 16.708-5.595-2.808-8.384a6.482 6.482 0 0 1 12.293-4.117l2.808 8.384 8.102-2.714a6.483 6.483 0 0 1 4.117 12.293l-8.102 2.713 5.386 16.083 8.103-2.714a6.482 6.482 0 0 1 4.116 12.293zm21.733-27.894C106.925 3.319 88.305-6.707 45.337 6.184 2.369 19.075-7.657 37.695 5.234 80.663c12.891 42.968 31.511 52.994 74.479 40.103 42.968-12.891 52.994-31.511 40.103-74.479z" fill="#FFF" mask="url(#b)"/></g></svg>