<?xml version="1.0" encoding="UTF-8"?>
<svg width="16px" height="16px" viewBox="0 0 16 16" version="1.1" xmlns="http://www.w3.org/2000/svg" xmlns:xlink="http://www.w3.org/1999/xlink">
    <!-- Generator: Sketch 41.2 (35397) - http://www.bohemiancoding.com/sketch -->
    <title>development</title>
    <desc>Created with Sketch.</desc>
    <defs></defs>
    <g id="Page-1" stroke="none" stroke-width="1" fill="none" fill-rule="evenodd">
        <path d="M0,0 L16,0 L16,16 L0,16 L0,0 Z M6,13 L9,13 L9,14 L6,14 L6,13 Z M4,11 L13,11 L13,12 L4,12 L4,11 Z M2,9 L11,9 L11,10 L2,10 L2,9 Z M2,6 L8,6 L8,7 L2,7 L2,6 Z M4,4 L14,4 L14,5 L4,5 L4,4 Z M2,2 L9,2 L9,3 L2,3 L2,2 Z" id="development" fill="#000000"></path>
    </g>
</svg>