<svg width="340" height="340" viewBox="0 0 340 340" xmlns="http://www.w3.org/2000/svg" xmlns:xlink="http://www.w3.org/1999/xlink"><title>Untitled 2</title><defs><circle id="a" cx="170" cy="170" r="157"/><mask id="b" x="-13" y="-13" width="340" height="340"><path fill="#fff" d="M0 0h340v340H0z"/><use xlink:href="#a"/></mask></defs><g fill="none" fill-rule="evenodd"><use fill="#141422" xlink:href="#a"/><use stroke="#D0D0D2" mask="url(#b)" stroke-width="26" xlink:href="#a"/><path d="M290.776 117.434c-1.054-2.74-4.218-4.006-6.748-2.952-1.898.844-3.163 2.742-3.163 4.64 0 .632 0 1.265.422 1.686 4.85 12.864 7.591 26.781 7.591 41.542 0 59.678-44.494 109.233-102.273 116.613v-55.038c3.584-.632 6.958-1.687 10.332-2.74v46.18c47.025-11.387 82.24-53.983 82.24-105.015 0-40.698-22.563-76.336-55.88-94.682-2.53-1.476-5.694-.421-6.96 2.32-.421.633-.421 1.476-.421 2.32 0 1.897 1.054 3.584 2.53 4.428 30.155 16.659 50.61 48.923 50.61 85.825 0 41.542-25.727 76.969-62.208 91.308V212.96c6.327-1.898 10.966-7.802 10.966-14.972 0-5.904-2.952-10.755-7.802-13.496 3.584-35.427 19.822-25.937 19.822-37.324v-6.537c0-16.87-39.012-71.908-57.358-73.173h-3.374c-18.346 1.265-57.357 56.303-57.357 73.173v6.537c0 11.176 16.026 1.897 19.822 37.324-4.64 2.741-7.592 7.802-7.592 13.496 0 6.959 4.64 12.863 10.966 14.972v40.91c-36.27-14.34-62.208-49.767-62.208-91.309 0-36.902 20.455-69.166 50.61-85.825 2.32-1.265 3.374-4.217 2.108-6.748-.632-1.898-2.53-2.952-4.428-2.952-.843 0-1.687.21-2.53.632C85.175 86.014 62.61 121.652 62.61 162.35c0 51.032 35.216 93.628 82.662 105.226v-46.181c3.374 1.054 6.748 2.109 10.333 2.741v55.038C97.827 271.583 53.333 222.238 53.333 162.35c0-14.55 2.741-28.467 7.591-41.542 1.055-2.53-.21-5.482-2.741-6.537-.633-.21-1.265-.421-1.898-.421-2.109 0-4.007 1.265-4.85 3.374C45.952 131.352 43 146.535 43 162.35c0 68.956 54.405 125.048 122.728 127.79v-64.738c1.898.21 5.272.21 5.272.21s3.374 0 5.272-.21v64.738C244.595 287.398 299 231.306 299 162.35c-.21-15.815-2.952-30.998-8.224-44.916zm-96.158 72.963c1.898-1.898 4.428-3.164 7.38-3.164 2.953 0 5.483 1.266 7.38 3.164 1.899 1.897 3.164 4.428 3.164 7.38s-1.265 5.483-3.163 7.38c-1.898 1.899-4.428 3.164-7.38 3.164-2.953 0-5.483-1.265-7.381-3.163-1.898-1.898-3.163-4.429-3.163-7.38 0-2.953 1.265-5.484 3.163-7.381zm-47.236 14.76c-1.898 1.899-4.428 3.164-7.38 3.164-2.953 0-5.483-1.265-7.38-3.163-2.11-1.898-3.164-4.429-3.164-7.38 0-2.953 1.265-5.484 3.163-7.381 1.898-1.898 4.428-3.164 7.38-3.164 2.953 0 5.483 1.266 7.381 3.164 1.898 1.897 3.163 4.428 3.163 7.38-.21 2.952-1.265 5.483-3.163 7.38z" fill="#149287"/></g></svg>