<?xml version="1.0" encoding="UTF-8"?>
<svg width="22px" height="16px" viewBox="0 0 22 16" version="1.1" xmlns="http://www.w3.org/2000/svg" xmlns:xlink="http://www.w3.org/1999/xlink">
    <!-- Generator: Sketch 41.2 (35397) - http://www.bohemiancoding.com/sketch -->
    <title>twitter</title>
    <desc>Created with Sketch.</desc>
    <defs></defs>
    <g id="Page-1" stroke="none" stroke-width="1" fill="none" fill-rule="evenodd">
        <g id="iPhone-7" transform="translate(-111.000000, -326.000000)" fill="#0A0A08">
            <polygon id="twitter" points="133 334 129 334 129 336 127 336 127 338 125 338 125 340 123 340 123 342 111 342 111 338 115 338 115 336 113 336 113 330 111 330 111 326 115 326 115 328 117 328 117 330 119 330 119 332 121 332 121 328 123 328 123 326 127 326 127 328 129 328 129 330 133 330"></polygon>
        </g>
    </g>
</svg>