<?xml version="1.0" encoding="UTF-8"?>
<svg width="16px" height="16px" viewBox="0 0 16 16" version="1.1" xmlns="http://www.w3.org/2000/svg" xmlns:xlink="http://www.w3.org/1999/xlink">
    <!-- Generator: Sketch 41.2 (35397) - http://www.bohemiancoding.com/sketch -->
    <title>web-design</title>
    <desc>Created with Sketch.</desc>
    <defs></defs>
    <g id="Page-1" stroke="none" stroke-width="1" fill="none" fill-rule="evenodd">
        <path d="M0,0 L16,0 L16,16 L0,16 L0,0 Z M1,1 L15,1 L15,15 L1,15 L1,1 Z M11,11 L13,11 L13,13 L11,13 L11,11 Z M2,2 L14,2 L14,7 L2,7 L2,2 Z M2,8 L14,8 L14,9 L2,9 L2,8 Z M3,11 L5,11 L5,13 L3,13 L3,11 Z M7,11 L9,11 L9,13 L7,13 L7,11 Z" id="web-design" fill="#000000"></path>
    </g>
</svg>