<?xml version="1.0" encoding="UTF-8"?>
<svg width="187px" height="190px" viewBox="0 0 187 190" version="1.1" xmlns="http://www.w3.org/2000/svg" xmlns:xlink="http://www.w3.org/1999/xlink">
    <!-- Generator: Sketch 41.2 (35397) - http://www.bohemiancoding.com/sketch -->
    <title>Combined Shape</title>
    <desc>Created with Sketch.</desc>
    <defs>
        <radialGradient cx="50.7871687%" cy="60.6702761%" fx="50.7871687%" fy="60.6702761%" r="39.3297239%" id="radialGradient-1">
            <stop stop-color="#CEE0F2" offset="0%"></stop>
            <stop stop-color="#9FBCDF" offset="100%"></stop>
        </radialGradient>
    </defs>
    <g id="Page-1" stroke="none" stroke-width="1" fill="none" fill-rule="evenodd">
        <g id="Artboard" transform="translate(-3.000000, -1.000000)" fill="url(#radialGradient-1)">
            <path d="M82.2960112,51.6165016 C82.2960112,51.6165016 93.0333841,0.813017729 96.6005284,1.00051773 C100.167673,1.18801773 110.905046,51.6165016 110.905046,51.6165016 C117.357576,53.4674216 123.901433,55.938357 129.610953,59.3189339 C129.610953,59.3189339 162.291901,25.0525708 164.822072,29.6095521 C167.352243,34.1665334 149.417207,74.7237985 149.417207,74.7237985 C152.758116,79.1274664 155.900144,83.7955789 158.219987,89.0283157 C158.219987,89.0283157 187.323596,77.0605831 189.029716,81.3258834 C190.735836,85.5911836 164.822072,105.533528 164.822072,105.533528 C165.452618,110.334143 165.998505,115.297606 165.922419,120.938392 C165.998505,158.977494 134.629877,190.260283 95.5001809,190.260283 C57.2395504,190.260283 25.8709226,158.977494 26.17829,120.938392 C25.8709226,115.229854 26.4314364,110.202047 27.2786375,105.533528 C27.2786375,105.533528 1.47622611,85.3128008 3.07099308,81.3258834 C4.66576004,77.338966 33.8807224,89.0283157 33.8807224,89.0283157 C36.1217447,83.5072468 39.445694,78.6384671 43.7838496,74.7237985 C43.7838496,74.7237985 24.5973603,33.3052052 27.2786375,29.6095521 C29.9599148,25.9138989 62.4897567,59.3189339 62.4897567,59.3189339 C68.6513698,55.6249204 75.430877,53.1577509 82.2960112,51.6165016 Z M54.6246472,129.983213 C43.3510965,122.662084 38.1816028,111.818545 45.1838486,100.348267 C52.1860944,88.8779894 88.5727287,123.165048 88.5727287,123.165048 C80.9421785,134.2273 65.8981979,137.304342 54.6246472,129.983213 Z M135.948082,129.983213 C147.221632,122.662084 152.391126,111.818545 145.38888,100.348267 C138.386634,88.8779894 102,123.165048 102,123.165048 C109.63055,134.2273 124.674531,137.304342 135.948082,129.983213 Z" id="Combined-Shape"></path>
        </g>
    </g>
</svg>