<svg xmlns="http://www.w3.org/2000/svg" width="1920" height="1080"><path d="M601 1284l-441 42 827-18z" fill="#8caad7" stroke="#8caad7" stroke-width="1.51"/><path d="M-169-256l431 2 963-9z" fill="#7da0d2" stroke="#7da0d2" stroke-width="1.51"/><path d="M262-254l507 15 456-24z" fill="#98b1db" stroke="#98b1db" stroke-width="1.51"/><path d="M987 1308l-827 18 1375-4z" fill="#a5badf" stroke="#a5badf" stroke-width="1.51"/><path d="M1236 1307l-249 1 548 14z" fill="#93aed9" stroke="#93aed9" stroke-width="1.51"/><path d="M1639 1294l-104 28 258-37z" fill="#729acf" stroke="#729acf" stroke-width="1.51"/><path d="M1772-215l144 42 124-13z" fill="#608ec9" stroke="#608ec9" stroke-width="1.51"/><path d="M2046 795l-60 51 77 140z" fill="#86a7d5" stroke="#86a7d5" stroke-width="1.51"/><path d="M2074 226l-41 150 51 118z" fill="#98b1db" stroke="#98b1db" stroke-width="1.51"/><path d="M2063 986l-95 19 135 164z" fill="#6f98ce" stroke="#6f98ce" stroke-width="1.51"/><path d="M2070 104l4 122 55 430z" fill="#91add8" stroke="#91add8" stroke-width="1.51"/><path d="M2069-31l1 135 59 552z" fill="#87a7d6" stroke="#87a7d6" stroke-width="1.51"/><path d="M2084 494l-124 78 169 84z" fill="#a9bde0" stroke="#a9bde0" stroke-width="1.51"/><path d="M1960 572l86 223 83-139z" fill="#9db5dd" stroke="#9db5dd" stroke-width="1.51"/><path d="M2046 795l17 191 66-330z" fill="#8aa9d7" stroke="#8aa9d7" stroke-width="1.51"/><path d="M2074 226l10 268 45 162z" fill="#a1b7de" stroke="#a1b7de" stroke-width="1.51"/><path d="M2063 986l40 183 26-513z" fill="#7a9ed1" stroke="#7a9ed1" stroke-width="1.51"/><path d="M1960 572l-64 67 150 156z" fill="#a3bbdf" stroke="#a3bbdf" stroke-width="1.51"/><path d="M2040-186l-89 77 118 78z" fill="#608ec9" stroke="#608ec9" stroke-width="1.51"/><path d="M1889 1161l151 79 63-71z" fill="#618fc9" stroke="#618fc9" stroke-width="1.51"/><path d="M1968 1005l-79 156 214 8z" fill="#6c96cd" stroke="#6c96cd" stroke-width="1.51"/><path d="M1322 1299l-86 8 299 15z" fill="#8aa8d6" stroke="#8aa8d6" stroke-width="1.51"/><path d="M1986 846l-18 159 95-19z" fill="#7fa3d3" stroke="#7fa3d3" stroke-width="1.51"/><path d="M2069-31L1889 77l181 27z" fill="#749cd0" stroke="#749cd0" stroke-width="1.51"/><path d="M2070 104l-117 90 121 32z" fill="#82a4d4" stroke="#82a4d4" stroke-width="1.51"/><path d="M1953 194l80 182 41-150z" fill="#8eacd8" stroke="#8eacd8" stroke-width="1.51"/><path d="M2033 376l-72 58 123 60z" fill="#a2b9df" stroke="#a2b9df" stroke-width="1.51"/><path d="M1961 434l-1 138 124-78z" fill="#acbfe2" stroke="#acbfe2" stroke-width="1.51"/><path d="M1951-109l-62 186 180-108z" fill="#6e98ce" stroke="#6e98ce" stroke-width="1.51"/><path d="M1889 77l64 117 117-90z" fill="#80a4d3" stroke="#80a4d3" stroke-width="1.51"/><path d="M1953 194l8 240 72-58z" fill="#99b4dc" stroke="#99b4dc" stroke-width="1.51"/><path d="M1889 1161l25 106 126-27z" fill="#628fc9" stroke="#628fc9" stroke-width="1.51"/><path d="M1896 639l90 207 60-51z" fill="#97b3db" stroke="#97b3db" stroke-width="1.51"/><path d="M1916-173l35 64 89-77z" fill="#5f8dc8" stroke="#5f8dc8" stroke-width="1.51"/><path d="M1953 194l-170 151 178 89z" fill="#9db8dd" stroke="#9db8dd" stroke-width="1.51"/><path d="M1774 220l9 125 170-151z" fill="#99b6dc" stroke="#99b6dc" stroke-width="1.51"/><path d="M1825 544l135 28 1-138z" fill="#b3c6e4" stroke="#b3c6e4" stroke-width="1.51"/><path d="M1801 809l-43 217 210-21z" fill="#8bacd7" stroke="#8bacd7" stroke-width="1.51"/><path d="M1801 809l167 196 18-159z" fill="#8bacd8" stroke="#8bacd8" stroke-width="1.51"/><path d="M1896 639l-95 170 185 37z" fill="#9cb7dd" stroke="#9cb7dd" stroke-width="1.51"/><path d="M1748-34l141 111 62-186z" fill="#779ed1" stroke="#779ed1" stroke-width="1.51"/><path d="M1822 1151l67 10 79-156z" fill="#749ccf" stroke="#749ccf" stroke-width="1.51"/><path d="M1758 1026l64 125 146-146z" fill="#7ca2d3" stroke="#7ca2d3" stroke-width="1.51"/><path d="M1783 345l42 199 136-110z" fill="#aec4e3" stroke="#aec4e3" stroke-width="1.51"/><path d="M1825 544l71 95 64-67z" fill="#b1c6e4" stroke="#b1c6e4" stroke-width="1.51"/><path d="M1889 77l-58 7 122 110z" fill="#85a8d6" stroke="#85a8d6" stroke-width="1.51"/><path d="M1831 84l-57 136 179-26z" fill="#8daed9" stroke="#8daed9" stroke-width="1.51"/><path d="M1916-173L1748-34l203-75z" fill="#6c96cd" stroke="#6c96cd" stroke-width="1.51"/><path d="M1822 1151l-29 134 96-124z" fill="#6d97ce" stroke="#6d97ce" stroke-width="1.51"/><path d="M1748-34l83 118 58-7z" fill="#81a6d4" stroke="#81a6d4" stroke-width="1.51"/><path d="M1744 737l57 72 95-170z" fill="#a6bfe1" stroke="#a6bfe1" stroke-width="1.51"/><path d="M1889 1161l-96 124 121-18z" fill="#6793cb" stroke="#6793cb" stroke-width="1.51"/><path d="M1772-215l-24 181 168-139z" fill="#6d97ce" stroke="#6d97ce" stroke-width="1.51"/><path d="M1825 544l-81 193 152-98z" fill="#b0c6e4" stroke="#b0c6e4" stroke-width="1.51"/><path d="M1685 871l-11 62 84 93z" fill="#95b4db" stroke="#95b4db" stroke-width="1.51"/><path d="M1685 871l73 155 43-217z" fill="#97b5db" stroke="#97b5db" stroke-width="1.51"/><path d="M1454-250l220 85 98-50z" fill="#759cd0" stroke="#759cd0" stroke-width="1.51"/><path d="M1674-165l74 131 24-181z" fill="#749cd0" stroke="#749cd0" stroke-width="1.51"/><path d="M1639 1294l154-9 29-134z" fill="#7099ce" stroke="#7099ce" stroke-width="1.51"/><path d="M1640 518l104 219 81-193z" fill="#bbcee8" stroke="#bbcee8" stroke-width="1.51"/><path d="M1783 345l-124 93 166 106z" fill="#b5c9e6" stroke="#b5c9e6" stroke-width="1.51"/><path d="M1659 438l-19 80 185 26z" fill="#c0d1e9" stroke="#c0d1e9" stroke-width="1.51"/><path d="M1610 94l164 126 57-136z" fill="#92b1da" stroke="#92b1da" stroke-width="1.51"/><path d="M1748-34L1610 94l221-10z" fill="#89abd7" stroke="#89abd7" stroke-width="1.51"/><path d="M1584 1176l55 118 183-143z" fill="#79a0d1" stroke="#79a0d1" stroke-width="1.51"/><path d="M1758 1026l-174 150 238-25z" fill="#80a4d4" stroke="#80a4d4" stroke-width="1.51"/><path d="M1640 518l-60 181 164 38z" fill="#bbcfe8" stroke="#bbcfe8" stroke-width="1.51"/><path d="M1774 220l-138 51 147 74z" fill="#a4bee0" stroke="#a4bee0" stroke-width="1.51"/><path d="M1744 737l-59 134 116-62z" fill="#a2bde0" stroke="#a2bde0" stroke-width="1.51"/><path d="M1610 94l26 177 138-51z" fill="#9ebbde" stroke="#9ebbde" stroke-width="1.51"/><path d="M1636 271l23 167 124-93z" fill="#afc6e4" stroke="#afc6e4" stroke-width="1.51"/><path d="M1674-165l-52 56 126 75z" fill="#7ba2d2" stroke="#7ba2d2" stroke-width="1.51"/><path d="M1674 933l-90 243 174-150z" fill="#8cadd8" stroke="#8cadd8" stroke-width="1.51"/><path d="M1580 699l105 172 59-134z" fill="#acc4e3" stroke="#acc4e3" stroke-width="1.51"/><path d="M1622-109l-12 203 138-128z" fill="#87aad6" stroke="#87aad6" stroke-width="1.51"/><path d="M1493 961l24 191 67 24z" fill="#91b1da" stroke="#91b1da" stroke-width="1.51"/><path d="M1636 271l-160 110 183 57z" fill="#b8cde7" stroke="#b8cde7" stroke-width="1.51"/><path d="M1493 961l91 215 90-243z" fill="#95b4db" stroke="#95b4db" stroke-width="1.51"/><path d="M1580 699l-116 89 221 83z" fill="#b1c8e5" stroke="#b1c8e5" stroke-width="1.51"/><path d="M1493 961l181-28 11-62z" fill="#9ebade" stroke="#9ebade" stroke-width="1.51"/><path d="M1464 788l29 173 192-90z" fill="#a9c2e2" stroke="#a9c2e2" stroke-width="1.51"/><path d="M1460-31l150 125 12-203z" fill="#8fafd9" stroke="#8fafd9" stroke-width="1.51"/><path d="M1610 94l-111 145 137 32z" fill="#a6c0e1" stroke="#a6c0e1" stroke-width="1.51"/><path d="M1488 652l92 47 60-181z" fill="#c5d5eb" stroke="#c5d5eb" stroke-width="1.51"/><path d="M1454-250l168 141 52-56z" fill="#7da1d2" stroke="#7da1d2" stroke-width="1.51"/><path d="M1460-31l4 73 146 52z" fill="#99b6dc" stroke="#99b6dc" stroke-width="1.51"/><path d="M1476 381l164 137 19-80z" fill="#c2d3eb" stroke="#c2d3eb" stroke-width="1.51"/><path d="M1499 239l-23 142 160-110z" fill="#b5cae6" stroke="#b5cae6" stroke-width="1.51"/><path d="M1584 1176l-49 146 104-28z" fill="#7ba0d2" stroke="#7ba0d2" stroke-width="1.51"/><path d="M1455 546l33 106 152-134z" fill="#cedcee" stroke="#cedcee" stroke-width="1.51"/><path d="M1476 381l-21 165 185-28z" fill="#cbdaed" stroke="#cbdaed" stroke-width="1.51"/><path d="M1454-250l6 219 162-78z" fill="#87a9d6" stroke="#87a9d6" stroke-width="1.51"/><path d="M1464 42l35 197 111-145z" fill="#a2bddf" stroke="#a2bddf" stroke-width="1.51"/><path d="M1488 652l-24 136 116-89z" fill="#bfd2e9" stroke="#bfd2e9" stroke-width="1.51"/><path d="M1517 1152l18 170 49-146z" fill="#84a6d5" stroke="#84a6d5" stroke-width="1.51"/><path d="M234 1306l-74 20 441-42z" fill="#779cd0" stroke="#779cd0" stroke-width="1.51"/><path d="M1454-250l-141 139 147 80z" fill="#8faed9" stroke="#8faed9" stroke-width="1.51"/><path d="M1354 960l-28 166 167-165z" fill="#a6bfe1" stroke="#a6bfe1" stroke-width="1.51"/><path d="M1493 961l-167 165 191 26z" fill="#9ab7dd" stroke="#9ab7dd" stroke-width="1.51"/><path d="M1517 1152l-195 147 213 23z" fill="#87a8d6" stroke="#87a8d6" stroke-width="1.51"/><path d="M1328 831l26 129 110-172z" fill="#b8cde7" stroke="#b8cde7" stroke-width="1.51"/><path d="M1464 788l-110 172 139 1z" fill="#afc6e3" stroke="#afc6e3" stroke-width="1.51"/><path d="M1464 42l-167 183 202 14z" fill="#afc6e4" stroke="#afc6e4" stroke-width="1.51"/><path d="M1326 1126l-4 173 195-147z" fill="#93b1da" stroke="#93b1da" stroke-width="1.51"/><path d="M769-239l79 25 377-49z" fill="#aabde0" stroke="#aabde0" stroke-width="1.51"/><path d="M1315-205l-2 94 141-139z" fill="#8eacd8" stroke="#8eacd8" stroke-width="1.51"/><path d="M1283 49l14 176 167-183z" fill="#aec5e4" stroke="#aec5e4" stroke-width="1.51"/><path d="M1303 400l152 146 21-165z" fill="#d0ddef" stroke="#d0ddef" stroke-width="1.51"/><path d="M1297 225l6 175 173-19z" fill="#c7d7ec" stroke="#c7d7ec" stroke-width="1.51"/><path d="M1280 712l184 76 24-136z" fill="#c6d7ec" stroke="#c6d7ec" stroke-width="1.51"/><path d="M1297 225l179 156 23-142z" fill="#bcd0e9" stroke="#bcd0e9" stroke-width="1.51"/><path d="M1455 546l-131 49 164 57z" fill="#d3e0f0" stroke="#d3e0f0" stroke-width="1.51"/><path d="M1324 595l-44 117 208-60z" fill="#d1def0" stroke="#d1def0" stroke-width="1.51"/><path d="M1225-263l90 58 139-45z" fill="#8ca9d7" stroke="#8ca9d7" stroke-width="1.51"/><path d="M1303 400l21 195 131-49z" fill="#dce6f3" stroke="#dce6f3" stroke-width="1.51"/><path d="M1280 712l48 119 136-43z" fill="#c4d5eb" stroke="#c4d5eb" stroke-width="1.51"/><path d="M1460-31l-177 80 181-7z" fill="#9fbbdf" stroke="#9fbbdf" stroke-width="1.51"/><path d="M479 1276l-245 30 367-22z" fill="#82a4d4" stroke="#82a4d4" stroke-width="1.51"/><path d="M1313-111l-30 160 177-80z" fill="#9ebade" stroke="#9ebade" stroke-width="1.51"/><path d="M848-214l226 14 151-63z" fill="#a5badf" stroke="#a5badf" stroke-width="1.51"/><path d="M1239 664l41 48 44-117z" fill="#d7e3f2" stroke="#d7e3f2" stroke-width="1.51"/><path d="M1303 400l-70 121 91 74z" fill="#e1e9f5" stroke="#e1e9f5" stroke-width="1.51"/><path d="M1176 1000l8 97 142 29z" fill="#acc4e3" stroke="#acc4e3" stroke-width="1.51"/><path d="M1236 1307l86-8 4-173z" fill="#96b2db" stroke="#96b2db" stroke-width="1.51"/><path d="M1176 1000l150 126 28-166z" fill="#adc4e3" stroke="#adc4e3" stroke-width="1.51"/><path d="M1240 875l-64 125 178-40z" fill="#b8cde7" stroke="#b8cde7" stroke-width="1.51"/><path d="M1328 831l-88 44 114 85z" fill="#bbcfe8" stroke="#bbcfe8" stroke-width="1.51"/><path d="M1283 49l-104 41 118 135z" fill="#b7cce7" stroke="#b7cce7" stroke-width="1.51"/><path d="M1297 225l-83 192 89-17z" fill="#d0ddef" stroke="#d0ddef" stroke-width="1.51"/><path d="M1214 417l19 104 70-121z" fill="#dde7f4" stroke="#dde7f4" stroke-width="1.51"/><path d="M1182-112l101 161 30-160z" fill="#a3bce0" stroke="#a3bce0" stroke-width="1.51"/><path d="M1182-112l131 1 2-94z" fill="#99b5dc" stroke="#99b5dc" stroke-width="1.51"/><path d="M1184 1097l52 210 90-181z" fill="#a0bade" stroke="#a0bade" stroke-width="1.51"/><path d="M1280 712l-40 163 88-44z" fill="#c6d7ec" stroke="#c6d7ec" stroke-width="1.51"/><path d="M1233 521l6 143 85-69z" fill="#e0e9f5" stroke="#e0e9f5" stroke-width="1.51"/><path d="M1137 203l77 214 83-192z" fill="#ccdbee" stroke="#ccdbee" stroke-width="1.51"/><path d="M1225-263l-43 151 133-93z" fill="#98b2db" stroke="#98b2db" stroke-width="1.51"/><path d="M1179 90l-42 113 160 22z" fill="#c1d3ea" stroke="#c1d3ea" stroke-width="1.51"/><path d="M1182-112l-3 202 104-41z" fill="#aec5e3" stroke="#aec5e3" stroke-width="1.51"/><path d="M1239 664l-210 158 211 53z" fill="#d1def0" stroke="#d1def0" stroke-width="1.51"/><path d="M1239 664l1 211 40-163z" fill="#cfddee" stroke="#cfddee" stroke-width="1.51"/><path d="M1058-90l121 180 3-202z" fill="#afc5e4" stroke="#afc5e4" stroke-width="1.51"/><path d="M1137 203l-103 233 180-19z" fill="#dce6f3" stroke="#dce6f3" stroke-width="1.51"/><path d="M1074-200l108 88 43-151z" fill="#9eb7dd" stroke="#9eb7dd" stroke-width="1.51"/><path d="M1184 1097l-176 65 228 145z" fill="#a7bee1" stroke="#a7bee1" stroke-width="1.51"/><path d="M1008 1162l-21 146 249-1z" fill="#a6bce0" stroke="#a6bce0" stroke-width="1.51"/><path d="M1003 718l26 104 210-158z" fill="#dee7f4" stroke="#dee7f4" stroke-width="1.51"/><path d="M1233 521l-207-19 213 162z" fill="#ecf1f9" stroke="#ecf1f9" stroke-width="1.51"/><path d="M1026 502l-23 216 236-54z" fill="#eaf1f8" stroke="#eaf1f8" stroke-width="1.51"/><path d="M1064 947l112 53 64-125z" fill="#c1d2ea" stroke="#c1d2ea" stroke-width="1.51"/><path d="M1029 822l35 125 176-72z" fill="#cbdaee" stroke="#cbdaee" stroke-width="1.51"/><path d="M1214 417l-188 85 207 19z" fill="#e8eff7" stroke="#e8eff7" stroke-width="1.51"/><path d="M1034 436l-8 66 188-85z" fill="#eaf0f8" stroke="#eaf0f8" stroke-width="1.51"/><path d="M1020 221l14 215 103-233z" fill="#d9e4f2" stroke="#d9e4f2" stroke-width="1.51"/><path d="M1044 108l93 95 42-113z" fill="#c3d4eb" stroke="#c3d4eb" stroke-width="1.51"/><path d="M1058-90l-14 198 135-18z" fill="#bacee8" stroke="#bacee8" stroke-width="1.51"/><path d="M1074-200l-16 110 124-22z" fill="#a8bfe1" stroke="#a8bfe1" stroke-width="1.51"/><path d="M1176 1000l-112-53 120 150z" fill="#bacee8" stroke="#bacee8" stroke-width="1.51"/><path d="M1064 947l-56 215 176-65z" fill="#b9cce7" stroke="#b9cce7" stroke-width="1.51"/><path d="M-169-256l167 21 264-19z" fill="#5b8ac8" stroke="#5b8ac8" stroke-width="1.51"/><path d="M1044 108l-24 113 117-18z" fill="#cddbee" stroke="#cddbee" stroke-width="1.51"/><path d="M262-254l204 65 303-50z" fill="#85a6d5" stroke="#85a6d5" stroke-width="1.51"/><path d="M701 1235l-100 49 386 24z" fill="#9eb7dd" stroke="#9eb7dd" stroke-width="1.51"/><path d="M906 683l97 35 23-216z" fill="#f3f6fb" stroke="#f3f6fb" stroke-width="1.51"/><path d="M873 557l33 126 120-181z" fill="#f8fafd" stroke="#f8fafd" stroke-width="1.51"/><path d="M1020 221L881 419l153 17z" fill="#e8eff8" stroke="#e8eff8" stroke-width="1.51"/><path d="M921 104l123 4 14-198z" fill="#c2d3ea" stroke="#c2d3ea" stroke-width="1.51"/><path d="M891-101l30 205 137-194z" fill="#becfe9" stroke="#becfe9" stroke-width="1.51"/><path d="M899 1037l109 125 56-215z" fill="#c3d3ea" stroke="#c3d3ea" stroke-width="1.51"/><path d="M891-101l167 11 16-110z" fill="#b0c4e3" stroke="#b0c4e3" stroke-width="1.51"/><path d="M848-214l43 113 183-99z" fill="#afc2e3" stroke="#afc2e3" stroke-width="1.51"/><path d="M914 1255l-213-20 286 73z" fill="#a8bde0" stroke="#a8bde0" stroke-width="1.51"/><path d="M933 1187l54 121 21-146z" fill="#b2c5e4" stroke="#b2c5e4" stroke-width="1.51"/><path d="M1029 822l-191 26 226 99z" fill="#d7e3f2" stroke="#d7e3f2" stroke-width="1.51"/><path d="M838 848l61 189 165-90zM921 104l99 117 24-113z" fill="#cedcef" stroke="#cedcef" stroke-width="1.51"/><path d="M933 1187l-19 68 73 53z" fill="#b0c2e3" stroke="#b0c2e3" stroke-width="1.51"/><path d="M857 212l24 207 139-198z" fill="#dee7f4" stroke="#dee7f4" stroke-width="1.51"/><path d="M881 419l145 83 8-66z" fill="#f3f7fb" stroke="#f3f7fb" stroke-width="1.51"/><path d="M899 1037l34 150 75-25z" fill="#bccde8" stroke="#bccde8" stroke-width="1.51"/><path d="M1003 718L838 848l191-26z" fill="#e1eaf5" stroke="#e1eaf5" stroke-width="1.51"/><path d="M906 683l-68 165 165-130z" fill="#e3ebf6" stroke="#e3ebf6" stroke-width="1.51"/><path d="M921 104l-64 108 163 9z" fill="#d3e0f1" stroke="#d3e0f1" stroke-width="1.51"/><path d="M881 419l-8 138 153-55z" fill="#f7f9fc" stroke="#f7f9fc" stroke-width="1.51"/><path d="M726-116L688 96l203-197z" fill="#aec4e3" stroke="#aec4e3" stroke-width="1.51"/><path d="M838 848l-57 185 118 4z" fill="#c3d4eb" stroke="#c3d4eb" stroke-width="1.51"/><path d="M891-101L688 96l233 8z" fill="#bacee8" stroke="#bacee8" stroke-width="1.51"/><path d="M899 1037l-118-4 152 154z" fill="#bacde7" stroke="#bacde7" stroke-width="1.51"/><path d="M781 1033l-74 111 226 43z" fill="#b1c6e4" stroke="#b1c6e4" stroke-width="1.51"/><path d="M707 1144l207 111 19-68z" fill="#adc2e2" stroke="#adc2e2" stroke-width="1.51"/><path d="M764 872l17 161 57-185z" fill="#c6d6ec" stroke="#c6d6ec" stroke-width="1.51"/><path d="M857 212l-166 56 190 151z" fill="#d7e3f2" stroke="#d7e3f2" stroke-width="1.51"/><path d="M730 705l108 143 68-165z" fill="#dce6f4" stroke="#dce6f4" stroke-width="1.51"/><path d="M707 1144l-6 91 213 20z" fill="#a5bce0" stroke="#a5bce0" stroke-width="1.51"/><path d="M688 96l169 116 64-108z" fill="#c5d6ec" stroke="#c5d6ec" stroke-width="1.51"/><path d="M873 557L730 705l176-22z" fill="#e8eff7" stroke="#e8eff7" stroke-width="1.51"/><path d="M724 567l6 138 143-148z" fill="#e8eff8" stroke="#e8eff8" stroke-width="1.51"/><path d="M695 441l29 126 149-10z" fill="#edf2f9" stroke="#edf2f9" stroke-width="1.51"/><path d="M691 268l4 173 186-22z" fill="#dbe6f3" stroke="#dbe6f3" stroke-width="1.51"/><path d="M695 441l178 116 8-138z" fill="#ebf1f8" stroke="#ebf1f8" stroke-width="1.51"/><path d="M848-214l-122 98 165 15z" fill="#a8bee1" stroke="#a8bee1" stroke-width="1.51"/><path d="M730 705l34 167 74-24z" fill="#d1def0" stroke="#d1def0" stroke-width="1.51"/><path d="M769-239l-43 123 122-98z" fill="#a0b8de" stroke="#a0b8de" stroke-width="1.51"/><path d="M688 96l3 172 166-56z" fill="#c5d6ec" stroke="#c5d6ec" stroke-width="1.51"/><path d="M466-189l85 26 218-76z" fill="#90aed8" stroke="#90aed8" stroke-width="1.51"/><path d="M613-18l75 114 38-212z" fill="#a9c1e2" stroke="#a9c1e2" stroke-width="1.51"/><path d="M730 705L556 837l208 35z" fill="#cadaed" stroke="#cadaed" stroke-width="1.51"/><path d="M616 1084l91 60 74-111z" fill="#abc3e3" stroke="#abc3e3" stroke-width="1.51"/><path d="M764 872l-176 99 193 62z" fill="#bbcee8" stroke="#bbcee8" stroke-width="1.51"/><path d="M588 971l28 113 165-51z" fill="#afc6e4" stroke="#afc6e4" stroke-width="1.51"/><path d="M551-163l175 47 43-123z" fill="#99b4dc" stroke="#99b4dc" stroke-width="1.51"/><path d="M691 268l-98 68 102 105z" fill="#d1def0" stroke="#d1def0" stroke-width="1.51"/><path d="M724 567L609 678l121 27z" fill="#dce6f3" stroke="#dce6f3" stroke-width="1.51"/><path d="M556 837l32 134 176-99z" fill="#bccfe8" stroke="#bccfe8" stroke-width="1.51"/><path d="M688 96L570 228l121 40z" fill="#bed1e9" stroke="#bed1e9" stroke-width="1.51"/><path d="M695 441l-148 90 177 36z" fill="#e4ecf6" stroke="#e4ecf6" stroke-width="1.51"/><path d="M609 678l-53 159 174-132z" fill="#cddcee" stroke="#cddcee" stroke-width="1.51"/><path d="M551-163l62 145 113-98z" fill="#9cb7dd" stroke="#9cb7dd" stroke-width="1.51"/><path d="M547 531l62 147 115-111z" fill="#dee7f4" stroke="#dee7f4" stroke-width="1.51"/><path d="M613-18l-33 80 108 34z" fill="#abc3e3" stroke="#abc3e3" stroke-width="1.51"/><path d="M616 1084l-15 200 100-49z" fill="#9bb6dd" stroke="#9bb6dd" stroke-width="1.51"/><path d="M616 1084l85 151 6-91z" fill="#a3bce0" stroke="#a3bce0" stroke-width="1.51"/><path d="M580 62l-10 166L688 96z" fill="#b4cae6" stroke="#b4cae6" stroke-width="1.51"/><path d="M593 336l-46 195 148-90z" fill="#d7e3f2" stroke="#d7e3f2" stroke-width="1.51"/><path d="M570 228l23 108 98-68z" fill="#c5d6eb" stroke="#c5d6eb" stroke-width="1.51"/><path d="M485 51l85 177 10-166z" fill="#acc4e3" stroke="#acc4e3" stroke-width="1.51"/><path d="M415 365l132 166 46-195z" fill="#ccdbee" stroke="#ccdbee" stroke-width="1.51"/><path d="M547 531l-76 35 138 112z" fill="#d8e3f2" stroke="#d8e3f2" stroke-width="1.51"/><path d="M402 726l154 111 53-159z" fill="#c4d5eb" stroke="#c4d5eb" stroke-width="1.51"/><path d="M551-163L442-23l171 5z" fill="#98b5dc" stroke="#98b5dc" stroke-width="1.51"/><path d="M588 971l-168 10 196 103z" fill="#a7c1e1" stroke="#a7c1e1" stroke-width="1.51"/><path d="M420 981l-26 113 222-10z" fill="#9dbade" stroke="#9dbade" stroke-width="1.51"/><path d="M479 1276l122 8 15-200z" fill="#93b1da" stroke="#93b1da" stroke-width="1.51"/><path d="M394 1094l85 182 137-192z" fill="#94b3db" stroke="#94b3db" stroke-width="1.51"/><path d="M485 51l95 11 33-80z" fill="#a4bfe0" stroke="#a4bfe0" stroke-width="1.51"/><path d="M442-23l43 74 128-69z" fill="#9dbade" stroke="#9dbade" stroke-width="1.51"/><path d="M471 566l-69 160 207-48z" fill="#ccdbee" stroke="#ccdbee" stroke-width="1.51"/><path d="M556 837L420 981l168-10z" fill="#afc6e4" stroke="#afc6e4" stroke-width="1.51"/><path d="M427 843l-7 138 136-144z" fill="#afc7e4" stroke="#afc7e4" stroke-width="1.51"/><path d="M570 228l-172 57 195 51z" fill="#bed1e9" stroke="#bed1e9" stroke-width="1.51"/><path d="M398 285l17 80 178-29z" fill="#bfd2e9" stroke="#bfd2e9" stroke-width="1.51"/><path d="M402 726l25 117 129-6z" fill="#b9cde7" stroke="#b9cde7" stroke-width="1.51"/><path d="M485 51l-87 234 172-57z" fill="#b0c7e4" stroke="#b0c7e4" stroke-width="1.51"/><path d="M415 365l56 201 76-35z" fill="#d3dff0" stroke="#d3dff0" stroke-width="1.51"/><path d="M466-189L442-23l109-140z" fill="#8eaed8" stroke="#8eaed8" stroke-width="1.51"/><path d="M320 385l20 185 75-205z" fill="#c3d5eb" stroke="#c3d5eb" stroke-width="1.51"/><path d="M235-78l207 55 24-166z" fill="#88aad7" stroke="#88aad7" stroke-width="1.51"/><path d="M415 365l-75 205 131-4z" fill="#cfdcef" stroke="#cfdcef" stroke-width="1.51"/><path d="M340 570l62 156 69-160z" fill="#c9d9ed" stroke="#c9d9ed" stroke-width="1.51"/><path d="M394 1094l-153 49 238 133z" fill="#88aad6" stroke="#88aad6" stroke-width="1.51"/><path d="M241 1143l-7 163 245-30z" fill="#7ca1d2" stroke="#7ca1d2" stroke-width="1.51"/><path d="M442-23L233 134l252-83z" fill="#99b6dd" stroke="#99b6dd" stroke-width="1.51"/><path d="M233 134l49 60L485 51z" fill="#9db9de" stroke="#9db9de" stroke-width="1.51"/><path d="M282 194l116 91 87-234z" fill="#a7c1e1" stroke="#a7c1e1" stroke-width="1.51"/><path d="M262-254L235-78l231-111z" fill="#7ba0d2" stroke="#7ba0d2" stroke-width="1.51"/><path d="M306 859l114 122 7-138z" fill="#a8c1e2" stroke="#a8c1e2" stroke-width="1.51"/><path d="M235-78l-2 212L442-23z" fill="#8daed8" stroke="#8daed8" stroke-width="1.51"/><path d="M278 1000l116 94 26-113z" fill="#97b6dc" stroke="#97b6dc" stroke-width="1.51"/><path d="M306 859l-28 141 142-19z" fill="#9ebade" stroke="#9ebade" stroke-width="1.51"/><path d="M402 726l-96 133 121-16z" fill="#b1c8e5" stroke="#b1c8e5" stroke-width="1.51"/><path d="M340 570l-103 89 165 67z" fill="#c0d2ea" stroke="#c0d2ea" stroke-width="1.51"/><path d="M398 285l-78 100 95-20z" fill="#bacee8" stroke="#bacee8" stroke-width="1.51"/><path d="M237 659l69 200 96-133z" fill="#b3c9e6" stroke="#b3c9e6" stroke-width="1.51"/><path d="M282 194l38 191 78-100z" fill="#b0c7e4" stroke="#b0c7e4" stroke-width="1.51"/><path d="M278 1000l-37 143 153-49z" fill="#8caed8" stroke="#8caed8" stroke-width="1.51"/><path d="M140 59l93 75 2-212z" fill="#89abd7" stroke="#89abd7" stroke-width="1.51"/><path d="M237 659L109 807l197 52z" fill="#a9c1e2" stroke="#a9c1e2" stroke-width="1.51"/><path d="M282 194l-116 48 154 143z" fill="#a8c1e2" stroke="#a8c1e2" stroke-width="1.51"/><path d="M101 571l136 88 103-89z" fill="#bed0e9" stroke="#bed0e9" stroke-width="1.51"/><path d="M133 403l-32 168 239-1z" fill="#c0d1e9" stroke="#c0d1e9" stroke-width="1.51"/><path d="M320 385l-187 18 207 167z" fill="#bed0e9" stroke="#bed0e9" stroke-width="1.51"/><path d="M166 242l-33 161 187-18z" fill="#adc4e3" stroke="#adc4e3" stroke-width="1.51"/><path d="M-2-235l104 42 160-61z" fill="#6691cb" stroke="#6691cb" stroke-width="1.51"/><path d="M109 807l-1 217 170-24z" fill="#91b1da" stroke="#91b1da" stroke-width="1.51"/><path d="M109 807l169 193 28-141z" fill="#9db9de" stroke="#9db9de" stroke-width="1.51"/><path d="M102-193L235-78l27-176z" fill="#7199cf" stroke="#7199cf" stroke-width="1.51"/><path d="M108 1024l133 119 37-143z" fill="#87abd6" stroke="#87abd6" stroke-width="1.51"/><path d="M233 134l-67 108 116-48z" fill="#9cb9dd" stroke="#9cb9dd" stroke-width="1.51"/><path d="M120 661l-11 146 128-148z" fill="#acc3e3" stroke="#acc3e3" stroke-width="1.51"/><path d="M105 1151l129 155 7-163z" fill="#769ed0" stroke="#769ed0" stroke-width="1.51"/><path d="M105 1151l55 175 74-20z" fill="#6e97ce" stroke="#6e97ce" stroke-width="1.51"/><path d="M32 947l76 77 1-217z" fill="#8daed9" stroke="#8daed9" stroke-width="1.51"/><path d="M99-67l41 126 95-137z" fill="#7ea3d3" stroke="#7ea3d3" stroke-width="1.51"/><path d="M102-193L99-67l136-11z" fill="#739bd0" stroke="#739bd0" stroke-width="1.51"/><path d="M101 571l19 90 117-2z" fill="#b6c9e6" stroke="#b6c9e6" stroke-width="1.51"/><path d="M108 1024l-3 127 136-8z" fill="#7da3d3" stroke="#7da3d3" stroke-width="1.51"/><path d="M140 59l26 183 67-108z" fill="#93b2db" stroke="#93b2db" stroke-width="1.51"/><path d="M-41 109l6 88L140 59z" fill="#85a7d5" stroke="#85a7d5" stroke-width="1.51"/><path d="M105 1151l-65 171 120 4z" fill="#6893cc" stroke="#6893cc" stroke-width="1.51"/><path d="M-17 400l150 3 33-161z" fill="#a5bee0" stroke="#a5bee0" stroke-width="1.51"/><path d="M-35 197l18 203 183-158z" fill="#99b5dc" stroke="#99b5dc" stroke-width="1.51"/><path d="M140 59L-35 197l201 45z" fill="#8fafd9" stroke="#8fafd9" stroke-width="1.51"/><path d="M38 797l71 10 11-146z" fill="#a2bcdf" stroke="#a2bcdf" stroke-width="1.51"/><path d="M2 724l36 73 82-136z" fill="#a3bcdf" stroke="#a3bcdf" stroke-width="1.51"/><path d="M-17 400l118 171 32-168z" fill="#b1c5e4" stroke="#b1c5e4" stroke-width="1.51"/><path d="M38 797l-6 150 77-140z" fill="#95b3db" stroke="#95b3db" stroke-width="1.51"/><path d="M99-67L-2-9l142 68z" fill="#7aa1d2" stroke="#7aa1d2" stroke-width="1.51"/><path d="M-2-9l-39 118 181-50z" fill="#7da3d3" stroke="#7da3d3" stroke-width="1.51"/><path d="M-17 400l-14 181 132-10z" fill="#b4c7e5" stroke="#b4c7e5" stroke-width="1.51"/><path d="M-2-235L99-67l3-126z" fill="#6793cc" stroke="#6793cc" stroke-width="1.51"/><path d="M-41 1149l81 173 65-171z" fill="#6894cb" stroke="#6894cb" stroke-width="1.51"/><path d="M-41 1149l146 2 3-127z" fill="#769dd0" stroke="#769dd0" stroke-width="1.51"/><path d="M101 571l-132 10 151 80z" fill="#b2c6e4" stroke="#b2c6e4" stroke-width="1.51"/><path d="M-31 581L2 724l118-63z" fill="#aac0e2" stroke="#aac0e2" stroke-width="1.51"/><path d="M-2-235V-9L99-67z" fill="#6b96cc" stroke="#6b96cc" stroke-width="1.51"/><path d="M32 947l-73 202 149-125z" fill="#7ca2d3" stroke="#7ca2d3" stroke-width="1.51"/><path d="M-35 197l-78 8 96 195z" fill="#91afd9" stroke="#91afd9" stroke-width="1.51"/><path d="M-162-97L-2-9v-226z" fill="#6390ca" stroke="#6390ca" stroke-width="1.51"/><path d="M-153 1044l112 105 73-202z" fill="#749cd0" stroke="#749cd0" stroke-width="1.51"/><path d="M-157 791L32 947l6-150z" fill="#8faed9" stroke="#8faed9" stroke-width="1.51"/><path d="M-41 1149l-127 123 208 50z" fill="#5d8cc8" stroke="#5d8cc8" stroke-width="1.51"/><path d="M2 724l-159 67 195 6z" fill="#97b3db" stroke="#97b3db" stroke-width="1.51"/><path d="M-126 560l95 21 14-181z" fill="#afc2e3" stroke="#afc2e3" stroke-width="1.51"/><path d="M-157 791l4 253 185-97z" fill="#80a4d3" stroke="#80a4d3" stroke-width="1.51"/><path d="M-113 205l-85 216 181-21z" fill="#96b2db" stroke="#96b2db" stroke-width="1.51"/><path d="M-110 95l69 14L-2-9z" fill="#799fd1" stroke="#799fd1" stroke-width="1.51"/><path d="M-169-256l7 159L-2-235z" fill="#5687c5" stroke="#5687c5" stroke-width="1.51"/><path d="M-31 581l-115 153L2 724z" fill="#a1b9de" stroke="#a1b9de" stroke-width="1.51"/><path d="M-146 734l-11 57L2 724z" fill="#96b1da" stroke="#96b1da" stroke-width="1.51"/><path d="M-126 560l-20 174 115-153zM-198 421l72 139 109-160z" fill="#a5bbdf" stroke="#a5bbdf" stroke-width="1.51"/><path d="M-162-97l52 192L-2-9z" fill="#6e97cd" stroke="#6e97cd" stroke-width="1.51"/><path d="M-110 95l-3 110 72-96z" fill="#7fa3d3" stroke="#7fa3d3" stroke-width="1.51"/><path d="M-41 109l-72 96 78-8z" fill="#85a7d5" stroke="#85a7d5" stroke-width="1.51"/><path d="M-200 1136l32 136 127-123z" fill="#5e8cc8" stroke="#5e8cc8" stroke-width="1.51"/><path d="M-153 1044l-47 92 159 13z" fill="#6793cb" stroke="#6793cb" stroke-width="1.51"/><path d="M-198 421l85-216 3-110z" fill="#88a8d6" stroke="#88a8d6" stroke-width="1.51"/><path d="M-162-97l-36 518 88-326z" fill="#7b9fd1" stroke="#7b9fd1" stroke-width="1.51"/><path d="M-198 421l52 313 20-174z" fill="#a8bce0" stroke="#a8bce0" stroke-width="1.51"/><path d="M-157 791l-43 345 47-92z" fill="#739ad0" stroke="#739ad0" stroke-width="1.51"/><path d="M-198 421l41 370 11-57z" fill="#9eb5dd" stroke="#9eb5dd" stroke-width="1.51"/><path d="M-198 421l-2 715 43-345z" fill="#8caad7" stroke="#8caad7" stroke-width="1.51"/><path d="M-169-256l-29 677 36-518z" fill="#6b95cc" stroke="#6b95cc" stroke-width="1.51"/></svg>