<svg xmlns="http://www.w3.org/2000/svg" width="1920" height="1080"><path d="M601,1284L160,1326L987,1308Z" fill="#8caad7" stroke="#8caad7" stroke-width="1.51"/><path d="M-169,-256L262,-254L1225,-263Z" fill="#7da0d2" stroke="#7da0d2" stroke-width="1.51"/><path d="M262,-254L769,-239L1225,-263Z" fill="#98b1db" stroke="#98b1db" stroke-width="1.51"/><path d="M987,1308L160,1326L1535,1322Z" fill="#a5badf" stroke="#a5badf" stroke-width="1.51"/><path d="M1236,1307L987,1308L1535,1322Z" fill="#93aed9" stroke="#93aed9" stroke-width="1.51"/><path d="M1639,1294L1535,1322L1793,1285Z" fill="#729acf" stroke="#729acf" stroke-width="1.51"/><path d="M1772,-215L1916,-173L2040,-186Z" fill="#608ec9" stroke="#608ec9" stroke-width="1.51"/><path d="M2046,795L1986,846L2063,986Z" fill="#86a7d5" stroke="#86a7d5" stroke-width="1.51"/><path d="M2074,226L2033,376L2084,494Z" fill="#98b1db" stroke="#98b1db" stroke-width="1.51"/><path d="M2063,986L1968,1005L2103,1169Z" fill="#6f98ce" stroke="#6f98ce" stroke-width="1.51"/><path d="M2070,104L2074,226L2129,656Z" fill="#91add8" stroke="#91add8" stroke-width="1.51"/><path d="M2069,-31L2070,104L2129,656Z" fill="#87a7d6" stroke="#87a7d6" stroke-width="1.51"/><path d="M2084,494L1960,572L2129,656Z" fill="#a9bde0" stroke="#a9bde0" stroke-width="1.51"/><path d="M1960,572L2046,795L2129,656Z" fill="#9db5dd" stroke="#9db5dd" stroke-width="1.51"/><path d="M2046,795L2063,986L2129,656Z" fill="#8aa9d7" stroke="#8aa9d7" stroke-width="1.51"/><path d="M2074,226L2084,494L2129,656Z" fill="#a1b7de" stroke="#a1b7de" stroke-width="1.51"/><path d="M2063,986L2103,1169L2129,656Z" fill="#7a9ed1" stroke="#7a9ed1" stroke-width="1.51"/><path d="M1960,572L1896,639L2046,795Z" fill="#a3bbdf" stroke="#a3bbdf" stroke-width="1.51"/><path d="M2040,-186L1951,-109L2069,-31Z" fill="#608ec9" stroke="#608ec9" stroke-width="1.51"/><path d="M1889,1161L2040,1240L2103,1169Z" fill="#618fc9" stroke="#618fc9" stroke-width="1.51"/><path d="M1968,1005L1889,1161L2103,1169Z" fill="#6c96cd" stroke="#6c96cd" stroke-width="1.51"/><path d="M1322,1299L1236,1307L1535,1322Z" fill="#8aa8d6" stroke="#8aa8d6" stroke-width="1.51"/><path d="M1986,846L1968,1005L2063,986Z" fill="#7fa3d3" stroke="#7fa3d3" stroke-width="1.51"/><path d="M2069,-31L1889,77L2070,104Z" fill="#749cd0" stroke="#749cd0" stroke-width="1.51"/><path d="M2070,104L1953,194L2074,226Z" fill="#82a4d4" stroke="#82a4d4" stroke-width="1.51"/><path d="M1953,194L2033,376L2074,226Z" fill="#8eacd8" stroke="#8eacd8" stroke-width="1.51"/><path d="M2033,376L1961,434L2084,494Z" fill="#a2b9df" stroke="#a2b9df" stroke-width="1.51"/><path d="M1961,434L1960,572L2084,494Z" fill="#acbfe2" stroke="#acbfe2" stroke-width="1.51"/><path d="M1951,-109L1889,77L2069,-31Z" fill="#6e98ce" stroke="#6e98ce" stroke-width="1.51"/><path d="M1889,77L1953,194L2070,104Z" fill="#80a4d3" stroke="#80a4d3" stroke-width="1.51"/><path d="M1953,194L1961,434L2033,376Z" fill="#99b4dc" stroke="#99b4dc" stroke-width="1.51"/><path d="M1889,1161L1914,1267L2040,1240Z" fill="#628fc9" stroke="#628fc9" stroke-width="1.51"/><path d="M1896,639L1986,846L2046,795Z" fill="#97b3db" stroke="#97b3db" stroke-width="1.51"/><path d="M1916,-173L1951,-109L2040,-186Z" fill="#5f8dc8" stroke="#5f8dc8" stroke-width="1.51"/><path d="M1953,194L1783,345L1961,434Z" fill="#9db8dd" stroke="#9db8dd" stroke-width="1.51"/><path d="M1774,220L1783,345L1953,194Z" fill="#99b6dc" stroke="#99b6dc" stroke-width="1.51"/><path d="M1825,544L1960,572L1961,434Z" fill="#b3c6e4" stroke="#b3c6e4" stroke-width="1.51"/><path d="M1801,809L1758,1026L1968,1005Z" fill="#8bacd7" stroke="#8bacd7" stroke-width="1.51"/><path d="M1801,809L1968,1005L1986,846Z" fill="#8bacd8" stroke="#8bacd8" stroke-width="1.51"/><path d="M1896,639L1801,809L1986,846Z" fill="#9cb7dd" stroke="#9cb7dd" stroke-width="1.51"/><path d="M1748,-34L1889,77L1951,-109Z" fill="#779ed1" stroke="#779ed1" stroke-width="1.51"/><path d="M1822,1151L1889,1161L1968,1005Z" fill="#749ccf" stroke="#749ccf" stroke-width="1.51"/><path d="M1758,1026L1822,1151L1968,1005Z" fill="#7ca2d3" stroke="#7ca2d3" stroke-width="1.51"/><path d="M1783,345L1825,544L1961,434Z" fill="#aec4e3" stroke="#aec4e3" stroke-width="1.51"/><path d="M1825,544L1896,639L1960,572Z" fill="#b1c6e4" stroke="#b1c6e4" stroke-width="1.51"/><path d="M1889,77L1831,84L1953,194Z" fill="#85a8d6" stroke="#85a8d6" stroke-width="1.51"/><path d="M1831,84L1774,220L1953,194Z" fill="#8daed9" stroke="#8daed9" stroke-width="1.51"/><path d="M1916,-173L1748,-34L1951,-109Z" fill="#6c96cd" stroke="#6c96cd" stroke-width="1.51"/><path d="M1822,1151L1793,1285L1889,1161Z" fill="#6d97ce" stroke="#6d97ce" stroke-width="1.51"/><path d="M1748,-34L1831,84L1889,77Z" fill="#81a6d4" stroke="#81a6d4" stroke-width="1.51"/><path d="M1744,737L1801,809L1896,639Z" fill="#a6bfe1" stroke="#a6bfe1" stroke-width="1.51"/><path d="M1889,1161L1793,1285L1914,1267Z" fill="#6793cb" stroke="#6793cb" stroke-width="1.51"/><path d="M1772,-215L1748,-34L1916,-173Z" fill="#6d97ce" stroke="#6d97ce" stroke-width="1.51"/><path d="M1825,544L1744,737L1896,639Z" fill="#b0c6e4" stroke="#b0c6e4" stroke-width="1.51"/><path d="M1685,871L1674,933L1758,1026Z" fill="#95b4db" stroke="#95b4db" stroke-width="1.51"/><path d="M1685,871L1758,1026L1801,809Z" fill="#97b5db" stroke="#97b5db" stroke-width="1.51"/><path d="M1454,-250L1674,-165L1772,-215Z" fill="#759cd0" stroke="#759cd0" stroke-width="1.51"/><path d="M1674,-165L1748,-34L1772,-215Z" fill="#749cd0" stroke="#749cd0" stroke-width="1.51"/><path d="M1639,1294L1793,1285L1822,1151Z" fill="#7099ce" stroke="#7099ce" stroke-width="1.51"/><path d="M1640,518L1744,737L1825,544Z" fill="#bbcee8" stroke="#bbcee8" stroke-width="1.51"/><path d="M1783,345L1659,438L1825,544Z" fill="#b5c9e6" stroke="#b5c9e6" stroke-width="1.51"/><path d="M1659,438L1640,518L1825,544Z" fill="#c0d1e9" stroke="#c0d1e9" stroke-width="1.51"/><path d="M1610,94L1774,220L1831,84Z" fill="#92b1da" stroke="#92b1da" stroke-width="1.51"/><path d="M1748,-34L1610,94L1831,84Z" fill="#89abd7" stroke="#89abd7" stroke-width="1.51"/><path d="M1584,1176L1639,1294L1822,1151Z" fill="#79a0d1" stroke="#79a0d1" stroke-width="1.51"/><path d="M1758,1026L1584,1176L1822,1151Z" fill="#80a4d4" stroke="#80a4d4" stroke-width="1.51"/><path d="M1640,518L1580,699L1744,737Z" fill="#bbcfe8" stroke="#bbcfe8" stroke-width="1.51"/><path d="M1774,220L1636,271L1783,345Z" fill="#a4bee0" stroke="#a4bee0" stroke-width="1.51"/><path d="M1744,737L1685,871L1801,809Z" fill="#a2bde0" stroke="#a2bde0" stroke-width="1.51"/><path d="M1610,94L1636,271L1774,220Z" fill="#9ebbde" stroke="#9ebbde" stroke-width="1.51"/><path d="M1636,271L1659,438L1783,345Z" fill="#afc6e4" stroke="#afc6e4" stroke-width="1.51"/><path d="M1674,-165L1622,-109L1748,-34Z" fill="#7ba2d2" stroke="#7ba2d2" stroke-width="1.51"/><path d="M1674,933L1584,1176L1758,1026Z" fill="#8cadd8" stroke="#8cadd8" stroke-width="1.51"/><path d="M1580,699L1685,871L1744,737Z" fill="#acc4e3" stroke="#acc4e3" stroke-width="1.51"/><path d="M1622,-109L1610,94L1748,-34Z" fill="#87aad6" stroke="#87aad6" stroke-width="1.51"/><path d="M1493,961L1517,1152L1584,1176Z" fill="#91b1da" stroke="#91b1da" stroke-width="1.51"/><path d="M1636,271L1476,381L1659,438Z" fill="#b8cde7" stroke="#b8cde7" stroke-width="1.51"/><path d="M1493,961L1584,1176L1674,933Z" fill="#95b4db" stroke="#95b4db" stroke-width="1.51"/><path d="M1580,699L1464,788L1685,871Z" fill="#b1c8e5" stroke="#b1c8e5" stroke-width="1.51"/><path d="M1493,961L1674,933L1685,871Z" fill="#9ebade" stroke="#9ebade" stroke-width="1.51"/><path d="M1464,788L1493,961L1685,871Z" fill="#a9c2e2" stroke="#a9c2e2" stroke-width="1.51"/><path d="M1460,-31L1610,94L1622,-109Z" fill="#8fafd9" stroke="#8fafd9" stroke-width="1.51"/><path d="M1610,94L1499,239L1636,271Z" fill="#a6c0e1" stroke="#a6c0e1" stroke-width="1.51"/><path d="M1488,652L1580,699L1640,518Z" fill="#c5d5eb" stroke="#c5d5eb" stroke-width="1.51"/><path d="M1454,-250L1622,-109L1674,-165Z" fill="#7da1d2" stroke="#7da1d2" stroke-width="1.51"/><path d="M1460,-31L1464,42L1610,94Z" fill="#99b6dc" stroke="#99b6dc" stroke-width="1.51"/><path d="M1476,381L1640,518L1659,438Z" fill="#c2d3eb" stroke="#c2d3eb" stroke-width="1.51"/><path d="M1499,239L1476,381L1636,271Z" fill="#b5cae6" stroke="#b5cae6" stroke-width="1.51"/><path d="M1584,1176L1535,1322L1639,1294Z" fill="#7ba0d2" stroke="#7ba0d2" stroke-width="1.51"/><path d="M1455,546L1488,652L1640,518Z" fill="#cedcee" stroke="#cedcee" stroke-width="1.51"/><path d="M1476,381L1455,546L1640,518Z" fill="#cbdaed" stroke="#cbdaed" stroke-width="1.51"/><path d="M1454,-250L1460,-31L1622,-109Z" fill="#87a9d6" stroke="#87a9d6" stroke-width="1.51"/><path d="M1464,42L1499,239L1610,94Z" fill="#a2bddf" stroke="#a2bddf" stroke-width="1.51"/><path d="M1488,652L1464,788L1580,699Z" fill="#bfd2e9" stroke="#bfd2e9" stroke-width="1.51"/><path d="M1517,1152L1535,1322L1584,1176Z" fill="#84a6d5" stroke="#84a6d5" stroke-width="1.51"/><path d="M234,1306L160,1326L601,1284Z" fill="#779cd0" stroke="#779cd0" stroke-width="1.51"/><path d="M1454,-250L1313,-111L1460,-31Z" fill="#8faed9" stroke="#8faed9" stroke-width="1.51"/><path d="M1354,960L1326,1126L1493,961Z" fill="#a6bfe1" stroke="#a6bfe1" stroke-width="1.51"/><path d="M1493,961L1326,1126L1517,1152Z" fill="#9ab7dd" stroke="#9ab7dd" stroke-width="1.51"/><path d="M1517,1152L1322,1299L1535,1322Z" fill="#87a8d6" stroke="#87a8d6" stroke-width="1.51"/><path d="M1328,831L1354,960L1464,788Z" fill="#b8cde7" stroke="#b8cde7" stroke-width="1.51"/><path d="M1464,788L1354,960L1493,961Z" fill="#afc6e3" stroke="#afc6e3" stroke-width="1.51"/><path d="M1464,42L1297,225L1499,239Z" fill="#afc6e4" stroke="#afc6e4" stroke-width="1.51"/><path d="M1326,1126L1322,1299L1517,1152Z" fill="#93b1da" stroke="#93b1da" stroke-width="1.51"/><path d="M769,-239L848,-214L1225,-263Z" fill="#aabde0" stroke="#aabde0" stroke-width="1.51"/><path d="M1315,-205L1313,-111L1454,-250Z" fill="#8eacd8" stroke="#8eacd8" stroke-width="1.51"/><path d="M1283,49L1297,225L1464,42Z" fill="#aec5e4" stroke="#aec5e4" stroke-width="1.51"/><path d="M1303,400L1455,546L1476,381Z" fill="#d0ddef" stroke="#d0ddef" stroke-width="1.51"/><path d="M1297,225L1303,400L1476,381Z" fill="#c7d7ec" stroke="#c7d7ec" stroke-width="1.51"/><path d="M1280,712L1464,788L1488,652Z" fill="#c6d7ec" stroke="#c6d7ec" stroke-width="1.51"/><path d="M1297,225L1476,381L1499,239Z" fill="#bcd0e9" stroke="#bcd0e9" stroke-width="1.51"/><path d="M1455,546L1324,595L1488,652Z" fill="#d3e0f0" stroke="#d3e0f0" stroke-width="1.51"/><path d="M1324,595L1280,712L1488,652Z" fill="#d1def0" stroke="#d1def0" stroke-width="1.51"/><path d="M1225,-263L1315,-205L1454,-250Z" fill="#8ca9d7" stroke="#8ca9d7" stroke-width="1.51"/><path d="M1303,400L1324,595L1455,546Z" fill="#dce6f3" stroke="#dce6f3" stroke-width="1.51"/><path d="M1280,712L1328,831L1464,788Z" fill="#c4d5eb" stroke="#c4d5eb" stroke-width="1.51"/><path d="M1460,-31L1283,49L1464,42Z" fill="#9fbbdf" stroke="#9fbbdf" stroke-width="1.51"/><path d="M479,1276L234,1306L601,1284Z" fill="#82a4d4" stroke="#82a4d4" stroke-width="1.51"/><path d="M1313,-111L1283,49L1460,-31Z" fill="#9ebade" stroke="#9ebade" stroke-width="1.51"/><path d="M848,-214L1074,-200L1225,-263Z" fill="#a5badf" stroke="#a5badf" stroke-width="1.51"/><path d="M1239,664L1280,712L1324,595Z" fill="#d7e3f2" stroke="#d7e3f2" stroke-width="1.51"/><path d="M1303,400L1233,521L1324,595Z" fill="#e1e9f5" stroke="#e1e9f5" stroke-width="1.51"/><path d="M1176,1000L1184,1097L1326,1126Z" fill="#acc4e3" stroke="#acc4e3" stroke-width="1.51"/><path d="M1236,1307L1322,1299L1326,1126Z" fill="#96b2db" stroke="#96b2db" stroke-width="1.51"/><path d="M1176,1000L1326,1126L1354,960Z" fill="#adc4e3" stroke="#adc4e3" stroke-width="1.51"/><path d="M1240,875L1176,1000L1354,960Z" fill="#b8cde7" stroke="#b8cde7" stroke-width="1.51"/><path d="M1328,831L1240,875L1354,960Z" fill="#bbcfe8" stroke="#bbcfe8" stroke-width="1.51"/><path d="M1283,49L1179,90L1297,225Z" fill="#b7cce7" stroke="#b7cce7" stroke-width="1.51"/><path d="M1297,225L1214,417L1303,400Z" fill="#d0ddef" stroke="#d0ddef" stroke-width="1.51"/><path d="M1214,417L1233,521L1303,400Z" fill="#dde7f4" stroke="#dde7f4" stroke-width="1.51"/><path d="M1182,-112L1283,49L1313,-111Z" fill="#a3bce0" stroke="#a3bce0" stroke-width="1.51"/><path d="M1182,-112L1313,-111L1315,-205Z" fill="#99b5dc" stroke="#99b5dc" stroke-width="1.51"/><path d="M1184,1097L1236,1307L1326,1126Z" fill="#a0bade" stroke="#a0bade" stroke-width="1.51"/><path d="M1280,712L1240,875L1328,831Z" fill="#c6d7ec" stroke="#c6d7ec" stroke-width="1.51"/><path d="M1233,521L1239,664L1324,595Z" fill="#e0e9f5" stroke="#e0e9f5" stroke-width="1.51"/><path d="M1137,203L1214,417L1297,225Z" fill="#ccdbee" stroke="#ccdbee" stroke-width="1.51"/><path d="M1225,-263L1182,-112L1315,-205Z" fill="#98b2db" stroke="#98b2db" stroke-width="1.51"/><path d="M1179,90L1137,203L1297,225Z" fill="#c1d3ea" stroke="#c1d3ea" stroke-width="1.51"/><path d="M1182,-112L1179,90L1283,49Z" fill="#aec5e3" stroke="#aec5e3" stroke-width="1.51"/><path d="M1239,664L1029,822L1240,875Z" fill="#d1def0" stroke="#d1def0" stroke-width="1.51"/><path d="M1239,664L1240,875L1280,712Z" fill="#cfddee" stroke="#cfddee" stroke-width="1.51"/><path d="M1058,-90L1179,90L1182,-112Z" fill="#afc5e4" stroke="#afc5e4" stroke-width="1.51"/><path d="M1137,203L1034,436L1214,417Z" fill="#dce6f3" stroke="#dce6f3" stroke-width="1.51"/><path d="M1074,-200L1182,-112L1225,-263Z" fill="#9eb7dd" stroke="#9eb7dd" stroke-width="1.51"/><path d="M1184,1097L1008,1162L1236,1307Z" fill="#a7bee1" stroke="#a7bee1" stroke-width="1.51"/><path d="M1008,1162L987,1308L1236,1307Z" fill="#a6bce0" stroke="#a6bce0" stroke-width="1.51"/><path d="M1003,718L1029,822L1239,664Z" fill="#dee7f4" stroke="#dee7f4" stroke-width="1.51"/><path d="M1233,521L1026,502L1239,664Z" fill="#ecf1f9" stroke="#ecf1f9" stroke-width="1.51"/><path d="M1026,502L1003,718L1239,664Z" fill="#eaf1f8" stroke="#eaf1f8" stroke-width="1.51"/><path d="M1064,947L1176,1000L1240,875Z" fill="#c1d2ea" stroke="#c1d2ea" stroke-width="1.51"/><path d="M1029,822L1064,947L1240,875Z" fill="#cbdaee" stroke="#cbdaee" stroke-width="1.51"/><path d="M1214,417L1026,502L1233,521Z" fill="#e8eff7" stroke="#e8eff7" stroke-width="1.51"/><path d="M1034,436L1026,502L1214,417Z" fill="#eaf0f8" stroke="#eaf0f8" stroke-width="1.51"/><path d="M1020,221L1034,436L1137,203Z" fill="#d9e4f2" stroke="#d9e4f2" stroke-width="1.51"/><path d="M1044,108L1137,203L1179,90Z" fill="#c3d4eb" stroke="#c3d4eb" stroke-width="1.51"/><path d="M1058,-90L1044,108L1179,90Z" fill="#bacee8" stroke="#bacee8" stroke-width="1.51"/><path d="M1074,-200L1058,-90L1182,-112Z" fill="#a8bfe1" stroke="#a8bfe1" stroke-width="1.51"/><path d="M1176,1000L1064,947L1184,1097Z" fill="#bacee8" stroke="#bacee8" stroke-width="1.51"/><path d="M1064,947L1008,1162L1184,1097Z" fill="#b9cce7" stroke="#b9cce7" stroke-width="1.51"/><path d="M-169,-256L-2,-235L262,-254Z" fill="#5b8ac8" stroke="#5b8ac8" stroke-width="1.51"/><path d="M1044,108L1020,221L1137,203Z" fill="#cddbee" stroke="#cddbee" stroke-width="1.51"/><path d="M262,-254L466,-189L769,-239Z" fill="#85a6d5" stroke="#85a6d5" stroke-width="1.51"/><path d="M701,1235L601,1284L987,1308Z" fill="#9eb7dd" stroke="#9eb7dd" stroke-width="1.51"/><path d="M906,683L1003,718L1026,502Z" fill="#f3f6fb" stroke="#f3f6fb" stroke-width="1.51"/><path d="M873,557L906,683L1026,502Z" fill="#f8fafd" stroke="#f8fafd" stroke-width="1.51"/><path d="M1020,221L881,419L1034,436Z" fill="#e8eff8" stroke="#e8eff8" stroke-width="1.51"/><path d="M921,104L1044,108L1058,-90Z" fill="#c2d3ea" stroke="#c2d3ea" stroke-width="1.51"/><path d="M891,-101L921,104L1058,-90Z" fill="#becfe9" stroke="#becfe9" stroke-width="1.51"/><path d="M899,1037L1008,1162L1064,947Z" fill="#c3d3ea" stroke="#c3d3ea" stroke-width="1.51"/><path d="M891,-101L1058,-90L1074,-200Z" fill="#b0c4e3" stroke="#b0c4e3" stroke-width="1.51"/><path d="M848,-214L891,-101L1074,-200Z" fill="#afc2e3" stroke="#afc2e3" stroke-width="1.51"/><path d="M914,1255L701,1235L987,1308Z" fill="#a8bde0" stroke="#a8bde0" stroke-width="1.51"/><path d="M933,1187L987,1308L1008,1162Z" fill="#b2c5e4" stroke="#b2c5e4" stroke-width="1.51"/><path d="M1029,822L838,848L1064,947Z" fill="#d7e3f2" stroke="#d7e3f2" stroke-width="1.51"/><path d="M838,848L899,1037L1064,947Z" fill="#cedcef" stroke="#cedcef" stroke-width="1.51"/><path d="M921,104L1020,221L1044,108Z" fill="#cedcef" stroke="#cedcef" stroke-width="1.51"/><path d="M933,1187L914,1255L987,1308Z" fill="#b0c2e3" stroke="#b0c2e3" stroke-width="1.51"/><path d="M857,212L881,419L1020,221Z" fill="#dee7f4" stroke="#dee7f4" stroke-width="1.51"/><path d="M881,419L1026,502L1034,436Z" fill="#f3f7fb" stroke="#f3f7fb" stroke-width="1.51"/><path d="M899,1037L933,1187L1008,1162Z" fill="#bccde8" stroke="#bccde8" stroke-width="1.51"/><path d="M1003,718L838,848L1029,822Z" fill="#e1eaf5" stroke="#e1eaf5" stroke-width="1.51"/><path d="M906,683L838,848L1003,718Z" fill="#e3ebf6" stroke="#e3ebf6" stroke-width="1.51"/><path d="M921,104L857,212L1020,221Z" fill="#d3e0f1" stroke="#d3e0f1" stroke-width="1.51"/><path d="M881,419L873,557L1026,502Z" fill="#f7f9fc" stroke="#f7f9fc" stroke-width="1.51"/><path d="M726,-116L688,96L891,-101Z" fill="#aec4e3" stroke="#aec4e3" stroke-width="1.51"/><path d="M838,848L781,1033L899,1037Z" fill="#c3d4eb" stroke="#c3d4eb" stroke-width="1.51"/><path d="M891,-101L688,96L921,104Z" fill="#bacee8" stroke="#bacee8" stroke-width="1.51"/><path d="M899,1037L781,1033L933,1187Z" fill="#bacde7" stroke="#bacde7" stroke-width="1.51"/><path d="M781,1033L707,1144L933,1187Z" fill="#b1c6e4" stroke="#b1c6e4" stroke-width="1.51"/><path d="M707,1144L914,1255L933,1187Z" fill="#adc2e2" stroke="#adc2e2" stroke-width="1.51"/><path d="M764,872L781,1033L838,848Z" fill="#c6d6ec" stroke="#c6d6ec" stroke-width="1.51"/><path d="M857,212L691,268L881,419Z" fill="#d7e3f2" stroke="#d7e3f2" stroke-width="1.51"/><path d="M730,705L838,848L906,683Z" fill="#dce6f4" stroke="#dce6f4" stroke-width="1.51"/><path d="M707,1144L701,1235L914,1255Z" fill="#a5bce0" stroke="#a5bce0" stroke-width="1.51"/><path d="M688,96L857,212L921,104Z" fill="#c5d6ec" stroke="#c5d6ec" stroke-width="1.51"/><path d="M873,557L730,705L906,683Z" fill="#e8eff7" stroke="#e8eff7" stroke-width="1.51"/><path d="M724,567L730,705L873,557Z" fill="#e8eff8" stroke="#e8eff8" stroke-width="1.51"/><path d="M695,441L724,567L873,557Z" fill="#edf2f9" stroke="#edf2f9" stroke-width="1.51"/><path d="M691,268L695,441L881,419Z" fill="#dbe6f3" stroke="#dbe6f3" stroke-width="1.51"/><path d="M695,441L873,557L881,419Z" fill="#ebf1f8" stroke="#ebf1f8" stroke-width="1.51"/><path d="M848,-214L726,-116L891,-101Z" fill="#a8bee1" stroke="#a8bee1" stroke-width="1.51"/><path d="M730,705L764,872L838,848Z" fill="#d1def0" stroke="#d1def0" stroke-width="1.51"/><path d="M769,-239L726,-116L848,-214Z" fill="#a0b8de" stroke="#a0b8de" stroke-width="1.51"/><path d="M688,96L691,268L857,212Z" fill="#c5d6ec" stroke="#c5d6ec" stroke-width="1.51"/><path d="M466,-189L551,-163L769,-239Z" fill="#90aed8" stroke="#90aed8" stroke-width="1.51"/><path d="M613,-18L688,96L726,-116Z" fill="#a9c1e2" stroke="#a9c1e2" stroke-width="1.51"/><path d="M730,705L556,837L764,872Z" fill="#cadaed" stroke="#cadaed" stroke-width="1.51"/><path d="M616,1084L707,1144L781,1033Z" fill="#abc3e3" stroke="#abc3e3" stroke-width="1.51"/><path d="M764,872L588,971L781,1033Z" fill="#bbcee8" stroke="#bbcee8" stroke-width="1.51"/><path d="M588,971L616,1084L781,1033Z" fill="#afc6e4" stroke="#afc6e4" stroke-width="1.51"/><path d="M551,-163L726,-116L769,-239Z" fill="#99b4dc" stroke="#99b4dc" stroke-width="1.51"/><path d="M691,268L593,336L695,441Z" fill="#d1def0" stroke="#d1def0" stroke-width="1.51"/><path d="M724,567L609,678L730,705Z" fill="#dce6f3" stroke="#dce6f3" stroke-width="1.51"/><path d="M556,837L588,971L764,872Z" fill="#bccfe8" stroke="#bccfe8" stroke-width="1.51"/><path d="M688,96L570,228L691,268Z" fill="#bed1e9" stroke="#bed1e9" stroke-width="1.51"/><path d="M695,441L547,531L724,567Z" fill="#e4ecf6" stroke="#e4ecf6" stroke-width="1.51"/><path d="M609,678L556,837L730,705Z" fill="#cddcee" stroke="#cddcee" stroke-width="1.51"/><path d="M551,-163L613,-18L726,-116Z" fill="#9cb7dd" stroke="#9cb7dd" stroke-width="1.51"/><path d="M547,531L609,678L724,567Z" fill="#dee7f4" stroke="#dee7f4" stroke-width="1.51"/><path d="M613,-18L580,62L688,96Z" fill="#abc3e3" stroke="#abc3e3" stroke-width="1.51"/><path d="M616,1084L601,1284L701,1235Z" fill="#9bb6dd" stroke="#9bb6dd" stroke-width="1.51"/><path d="M616,1084L701,1235L707,1144Z" fill="#a3bce0" stroke="#a3bce0" stroke-width="1.51"/><path d="M580,62L570,228L688,96Z" fill="#b4cae6" stroke="#b4cae6" stroke-width="1.51"/><path d="M593,336L547,531L695,441Z" fill="#d7e3f2" stroke="#d7e3f2" stroke-width="1.51"/><path d="M570,228L593,336L691,268Z" fill="#c5d6eb" stroke="#c5d6eb" stroke-width="1.51"/><path d="M485,51L570,228L580,62Z" fill="#acc4e3" stroke="#acc4e3" stroke-width="1.51"/><path d="M415,365L547,531L593,336Z" fill="#ccdbee" stroke="#ccdbee" stroke-width="1.51"/><path d="M547,531L471,566L609,678Z" fill="#d8e3f2" stroke="#d8e3f2" stroke-width="1.51"/><path d="M402,726L556,837L609,678Z" fill="#c4d5eb" stroke="#c4d5eb" stroke-width="1.51"/><path d="M551,-163L442,-23L613,-18Z" fill="#98b5dc" stroke="#98b5dc" stroke-width="1.51"/><path d="M588,971L420,981L616,1084Z" fill="#a7c1e1" stroke="#a7c1e1" stroke-width="1.51"/><path d="M420,981L394,1094L616,1084Z" fill="#9dbade" stroke="#9dbade" stroke-width="1.51"/><path d="M479,1276L601,1284L616,1084Z" fill="#93b1da" stroke="#93b1da" stroke-width="1.51"/><path d="M394,1094L479,1276L616,1084Z" fill="#94b3db" stroke="#94b3db" stroke-width="1.51"/><path d="M485,51L580,62L613,-18Z" fill="#a4bfe0" stroke="#a4bfe0" stroke-width="1.51"/><path d="M442,-23L485,51L613,-18Z" fill="#9dbade" stroke="#9dbade" stroke-width="1.51"/><path d="M471,566L402,726L609,678Z" fill="#ccdbee" stroke="#ccdbee" stroke-width="1.51"/><path d="M556,837L420,981L588,971Z" fill="#afc6e4" stroke="#afc6e4" stroke-width="1.51"/><path d="M427,843L420,981L556,837Z" fill="#afc7e4" stroke="#afc7e4" stroke-width="1.51"/><path d="M570,228L398,285L593,336Z" fill="#bed1e9" stroke="#bed1e9" stroke-width="1.51"/><path d="M398,285L415,365L593,336Z" fill="#bfd2e9" stroke="#bfd2e9" stroke-width="1.51"/><path d="M402,726L427,843L556,837Z" fill="#b9cde7" stroke="#b9cde7" stroke-width="1.51"/><path d="M485,51L398,285L570,228Z" fill="#b0c7e4" stroke="#b0c7e4" stroke-width="1.51"/><path d="M415,365L471,566L547,531Z" fill="#d3dff0" stroke="#d3dff0" stroke-width="1.51"/><path d="M466,-189L442,-23L551,-163Z" fill="#8eaed8" stroke="#8eaed8" stroke-width="1.51"/><path d="M320,385L340,570L415,365Z" fill="#c3d5eb" stroke="#c3d5eb" stroke-width="1.51"/><path d="M235,-78L442,-23L466,-189Z" fill="#88aad7" stroke="#88aad7" stroke-width="1.51"/><path d="M415,365L340,570L471,566Z" fill="#cfdcef" stroke="#cfdcef" stroke-width="1.51"/><path d="M340,570L402,726L471,566Z" fill="#c9d9ed" stroke="#c9d9ed" stroke-width="1.51"/><path d="M394,1094L241,1143L479,1276Z" fill="#88aad6" stroke="#88aad6" stroke-width="1.51"/><path d="M241,1143L234,1306L479,1276Z" fill="#7ca1d2" stroke="#7ca1d2" stroke-width="1.51"/><path d="M442,-23L233,134L485,51Z" fill="#99b6dd" stroke="#99b6dd" stroke-width="1.51"/><path d="M233,134L282,194L485,51Z" fill="#9db9de" stroke="#9db9de" stroke-width="1.51"/><path d="M282,194L398,285L485,51Z" fill="#a7c1e1" stroke="#a7c1e1" stroke-width="1.51"/><path d="M262,-254L235,-78L466,-189Z" fill="#7ba0d2" stroke="#7ba0d2" stroke-width="1.51"/><path d="M306,859L420,981L427,843Z" fill="#a8c1e2" stroke="#a8c1e2" stroke-width="1.51"/><path d="M235,-78L233,134L442,-23Z" fill="#8daed8" stroke="#8daed8" stroke-width="1.51"/><path d="M278,1000L394,1094L420,981Z" fill="#97b6dc" stroke="#97b6dc" stroke-width="1.51"/><path d="M306,859L278,1000L420,981Z" fill="#9ebade" stroke="#9ebade" stroke-width="1.51"/><path d="M402,726L306,859L427,843Z" fill="#b1c8e5" stroke="#b1c8e5" stroke-width="1.51"/><path d="M340,570L237,659L402,726Z" fill="#c0d2ea" stroke="#c0d2ea" stroke-width="1.51"/><path d="M398,285L320,385L415,365Z" fill="#bacee8" stroke="#bacee8" stroke-width="1.51"/><path d="M237,659L306,859L402,726Z" fill="#b3c9e6" stroke="#b3c9e6" stroke-width="1.51"/><path d="M282,194L320,385L398,285Z" fill="#b0c7e4" stroke="#b0c7e4" stroke-width="1.51"/><path d="M278,1000L241,1143L394,1094Z" fill="#8caed8" stroke="#8caed8" stroke-width="1.51"/><path d="M140,59L233,134L235,-78Z" fill="#89abd7" stroke="#89abd7" stroke-width="1.51"/><path d="M237,659L109,807L306,859Z" fill="#a9c1e2" stroke="#a9c1e2" stroke-width="1.51"/><path d="M282,194L166,242L320,385Z" fill="#a8c1e2" stroke="#a8c1e2" stroke-width="1.51"/><path d="M101,571L237,659L340,570Z" fill="#bed0e9" stroke="#bed0e9" stroke-width="1.51"/><path d="M133,403L101,571L340,570Z" fill="#c0d1e9" stroke="#c0d1e9" stroke-width="1.51"/><path d="M320,385L133,403L340,570Z" fill="#bed0e9" stroke="#bed0e9" stroke-width="1.51"/><path d="M166,242L133,403L320,385Z" fill="#adc4e3" stroke="#adc4e3" stroke-width="1.51"/><path d="M-2,-235L102,-193L262,-254Z" fill="#6691cb" stroke="#6691cb" stroke-width="1.51"/><path d="M109,807L108,1024L278,1000Z" fill="#91b1da" stroke="#91b1da" stroke-width="1.51"/><path d="M109,807L278,1000L306,859Z" fill="#9db9de" stroke="#9db9de" stroke-width="1.51"/><path d="M102,-193L235,-78L262,-254Z" fill="#7199cf" stroke="#7199cf" stroke-width="1.51"/><path d="M108,1024L241,1143L278,1000Z" fill="#87abd6" stroke="#87abd6" stroke-width="1.51"/><path d="M233,134L166,242L282,194Z" fill="#9cb9dd" stroke="#9cb9dd" stroke-width="1.51"/><path d="M120,661L109,807L237,659Z" fill="#acc3e3" stroke="#acc3e3" stroke-width="1.51"/><path d="M105,1151L234,1306L241,1143Z" fill="#769ed0" stroke="#769ed0" stroke-width="1.51"/><path d="M105,1151L160,1326L234,1306Z" fill="#6e97ce" stroke="#6e97ce" stroke-width="1.51"/><path d="M32,947L108,1024L109,807Z" fill="#8daed9" stroke="#8daed9" stroke-width="1.51"/><path d="M99,-67L140,59L235,-78Z" fill="#7ea3d3" stroke="#7ea3d3" stroke-width="1.51"/><path d="M102,-193L99,-67L235,-78Z" fill="#739bd0" stroke="#739bd0" stroke-width="1.51"/><path d="M101,571L120,661L237,659Z" fill="#b6c9e6" stroke="#b6c9e6" stroke-width="1.51"/><path d="M108,1024L105,1151L241,1143Z" fill="#7da3d3" stroke="#7da3d3" stroke-width="1.51"/><path d="M140,59L166,242L233,134Z" fill="#93b2db" stroke="#93b2db" stroke-width="1.51"/><path d="M-41,109L-35,197L140,59Z" fill="#85a7d5" stroke="#85a7d5" stroke-width="1.51"/><path d="M105,1151L40,1322L160,1326Z" fill="#6893cc" stroke="#6893cc" stroke-width="1.51"/><path d="M-17,400L133,403L166,242Z" fill="#a5bee0" stroke="#a5bee0" stroke-width="1.51"/><path d="M-35,197L-17,400L166,242Z" fill="#99b5dc" stroke="#99b5dc" stroke-width="1.51"/><path d="M140,59L-35,197L166,242Z" fill="#8fafd9" stroke="#8fafd9" stroke-width="1.51"/><path d="M38,797L109,807L120,661Z" fill="#a2bcdf" stroke="#a2bcdf" stroke-width="1.51"/><path d="M2,724L38,797L120,661Z" fill="#a3bcdf" stroke="#a3bcdf" stroke-width="1.51"/><path d="M-17,400L101,571L133,403Z" fill="#b1c5e4" stroke="#b1c5e4" stroke-width="1.51"/><path d="M38,797L32,947L109,807Z" fill="#95b3db" stroke="#95b3db" stroke-width="1.51"/><path d="M99,-67L-2,-9L140,59Z" fill="#7aa1d2" stroke="#7aa1d2" stroke-width="1.51"/><path d="M-2,-9L-41,109L140,59Z" fill="#7da3d3" stroke="#7da3d3" stroke-width="1.51"/><path d="M-17,400L-31,581L101,571Z" fill="#b4c7e5" stroke="#b4c7e5" stroke-width="1.51"/><path d="M-2,-235L99,-67L102,-193Z" fill="#6793cc" stroke="#6793cc" stroke-width="1.51"/><path d="M-41,1149L40,1322L105,1151Z" fill="#6894cb" stroke="#6894cb" stroke-width="1.51"/><path d="M-41,1149L105,1151L108,1024Z" fill="#769dd0" stroke="#769dd0" stroke-width="1.51"/><path d="M101,571L-31,581L120,661Z" fill="#b2c6e4" stroke="#b2c6e4" stroke-width="1.51"/><path d="M-31,581L2,724L120,661Z" fill="#aac0e2" stroke="#aac0e2" stroke-width="1.51"/><path d="M-2,-235L-2,-9L99,-67Z" fill="#6b96cc" stroke="#6b96cc" stroke-width="1.51"/><path d="M32,947L-41,1149L108,1024Z" fill="#7ca2d3" stroke="#7ca2d3" stroke-width="1.51"/><path d="M-35,197L-113,205L-17,400Z" fill="#91afd9" stroke="#91afd9" stroke-width="1.51"/><path d="M-162,-97L-2,-9L-2,-235Z" fill="#6390ca" stroke="#6390ca" stroke-width="1.51"/><path d="M-153,1044L-41,1149L32,947Z" fill="#749cd0" stroke="#749cd0" stroke-width="1.51"/><path d="M-157,791L32,947L38,797Z" fill="#8faed9" stroke="#8faed9" stroke-width="1.51"/><path d="M-41,1149L-168,1272L40,1322Z" fill="#5d8cc8" stroke="#5d8cc8" stroke-width="1.51"/><path d="M2,724L-157,791L38,797Z" fill="#97b3db" stroke="#97b3db" stroke-width="1.51"/><path d="M-126,560L-31,581L-17,400Z" fill="#afc2e3" stroke="#afc2e3" stroke-width="1.51"/><path d="M-157,791L-153,1044L32,947Z" fill="#80a4d3" stroke="#80a4d3" stroke-width="1.51"/><path d="M-113,205L-198,421L-17,400Z" fill="#96b2db" stroke="#96b2db" stroke-width="1.51"/><path d="M-110,95L-41,109L-2,-9Z" fill="#799fd1" stroke="#799fd1" stroke-width="1.51"/><path d="M-169,-256L-162,-97L-2,-235Z" fill="#5687c5" stroke="#5687c5" stroke-width="1.51"/><path d="M-31,581L-146,734L2,724Z" fill="#a1b9de" stroke="#a1b9de" stroke-width="1.51"/><path d="M-146,734L-157,791L2,724Z" fill="#96b1da" stroke="#96b1da" stroke-width="1.51"/><path d="M-126,560L-146,734L-31,581Z" fill="#a5bbdf" stroke="#a5bbdf" stroke-width="1.51"/><path d="M-198,421L-126,560L-17,400Z" fill="#a5bbdf" stroke="#a5bbdf" stroke-width="1.51"/><path d="M-162,-97L-110,95L-2,-9Z" fill="#6e97cd" stroke="#6e97cd" stroke-width="1.51"/><path d="M-110,95L-113,205L-41,109Z" fill="#7fa3d3" stroke="#7fa3d3" stroke-width="1.51"/><path d="M-41,109L-113,205L-35,197Z" fill="#85a7d5" stroke="#85a7d5" stroke-width="1.51"/><path d="M-200,1136L-168,1272L-41,1149Z" fill="#5e8cc8" stroke="#5e8cc8" stroke-width="1.51"/><path d="M-153,1044L-200,1136L-41,1149Z" fill="#6793cb" stroke="#6793cb" stroke-width="1.51"/><path d="M-198,421L-113,205L-110,95Z" fill="#88a8d6" stroke="#88a8d6" stroke-width="1.51"/><path d="M-162,-97L-198,421L-110,95Z" fill="#7b9fd1" stroke="#7b9fd1" stroke-width="1.51"/><path d="M-198,421L-146,734L-126,560Z" fill="#a8bce0" stroke="#a8bce0" stroke-width="1.51"/><path d="M-157,791L-200,1136L-153,1044Z" fill="#739ad0" stroke="#739ad0" stroke-width="1.51"/><path d="M-198,421L-157,791L-146,734Z" fill="#9eb5dd" stroke="#9eb5dd" stroke-width="1.51"/><path d="M-198,421L-200,1136L-157,791Z" fill="#8caad7" stroke="#8caad7" stroke-width="1.51"/><path d="M-169,-256L-198,421L-162,-97Z" fill="#6b95cc" stroke="#6b95cc" stroke-width="1.51"/></svg>